<svg width="180" height="45" viewBox="0 0 180 45" fill="none" xmlns="http://www.w3.org/2000/svg">
<path fill-rule="evenodd" clip-rule="evenodd" d="M21.7939 19.816C21.8195 19.4606 21.973 19.1268 22.2416 18.8687C22.4355 18.6825 22.7355 18.7863 22.8533 19.0285C22.9687 19.2659 22.8229 19.5451 22.7535 19.8C22.7455 19.8297 22.7407 19.8591 22.7387 19.8874C22.7274 20.0434 22.7942 20.2247 22.9586 20.3589C23.1051 20.4784 23.3087 20.5058 23.4699 20.4502C23.6699 20.3811 23.8562 20.1663 24.0677 20.1663H24.1585C24.4201 20.1663 24.6428 20.3871 24.5492 20.6329C24.4091 21.0012 24.1078 21.2538 23.7726 21.3695C23.3263 21.5236 22.7824 21.4557 22.3682 21.1176C21.972 20.7943 21.7584 20.3083 21.7939 19.816Z" fill="black"/>
<path d="M31.4194 15.8606C27.5157 15.7262 25.094 18.156 24.3711 19.3878C25.2145 18.9958 27.5157 18.5144 29.9736 19.7237C31.9616 20.7018 35.5761 21.6384 37.7448 21.2353C39.2509 20.9554 42.8413 19.8916 45.1546 17.8761C47.386 15.9319 48.5637 11.956 48.9146 10.0187C48.9372 9.89377 48.874 9.77003 48.756 9.70175L39.8398 4.54223C39.621 4.41562 39.3342 4.53473 39.3057 4.76812C39.0822 6.60358 38.585 11.5139 37.7448 13.1732C36.8944 14.8528 34.311 15.9601 31.4194 15.8606Z" fill="#4F42B5"/>
<path fill-rule="evenodd" clip-rule="evenodd" d="M22.2109 6.28411C22.7281 5.95937 23.3855 5.9653 23.8969 6.29932L33.2458 12.3629L32.3909 13.688L23.042 7.62444L1.57014 21.104L23.0449 34.5855L44.0796 21.0328L43.0707 20.1361L44.0516 18.9024L45.0605 19.7992C45.8998 20.4748 45.8315 21.78 44.9263 22.3632L23.8916 35.9159C23.3811 36.2448 22.7281 36.2487 22.2138 35.9258L0.738991 22.4444C-0.246331 21.8258 -0.24633 20.3823 0.738992 19.7637L22.2109 6.28411Z" fill="black"/>
<path fill-rule="evenodd" clip-rule="evenodd" d="M38.7266 2.54898C38.7257 2.57412 38.7247 2.59951 38.7237 2.62515C38.6814 3.7185 38.6218 5.26342 38.51 6.78929C38.44 7.74372 38.3489 8.70296 38.227 9.55155C38.107 10.3861 37.9503 11.1663 37.7326 11.7345C37.2717 12.9374 36.2775 13.9121 35.0496 14.5896C33.8152 15.2707 32.2943 15.682 30.6802 15.7323C28.3448 15.805 26.6437 16.9091 25.569 18.0284C26.7579 17.8853 28.2266 17.9958 29.7777 18.6974C30.7727 19.1474 32.1926 19.5719 33.6338 19.8076C35.0915 20.046 36.4671 20.0737 37.413 19.8128C38.8875 19.4062 42.3613 17.9989 44.4588 15.7092C45.4186 14.6615 46.1432 13.0655 46.6556 11.3949C47.1224 9.87273 47.3918 8.36004 47.5135 7.29637L38.7266 2.54898ZM37.1839 1.83114C37.2217 0.940881 38.1636 0.451577 38.9045 0.851888L48.4914 6.03152C48.8985 6.2515 49.1521 6.69885 49.1046 7.18325C48.9911 8.3412 48.6987 10.0908 48.1559 11.8608C47.6178 13.6152 46.8078 15.4759 45.6133 16.7799C43.2294 19.3823 39.4299 20.8947 37.828 21.3365C36.5589 21.6864 34.9192 21.6184 33.3819 21.367C31.828 21.1129 30.2731 20.6536 29.1339 20.1383C27.2525 19.2874 25.4022 19.0647 24.4548 19.5414C23.5074 20.018 23.0337 20.1383 23.0337 20.1383C23.0337 20.1383 23.18 19.0268 23.7744 18.0284C24.3688 17.03 26.1871 14.2916 30.6316 14.1532C32.02 14.1099 33.2954 13.7558 34.2946 13.2044C35.3002 12.6495 35.9769 11.9248 36.2676 11.1662C36.4189 10.7713 36.5564 10.1371 36.673 9.32545C36.7876 8.52783 36.8755 7.60902 36.9441 6.67315C37.0536 5.17819 37.1119 3.67093 37.1542 2.57697C37.1649 2.29944 37.1746 2.04852 37.1839 1.83114Z" fill="black"/>
<path d="M37.2693 17.0902C37.0427 16.6926 37.3041 16.1207 37.7218 15.8799C37.9778 15.7323 38.3338 15.4809 38.5822 15.2806C38.9409 14.9913 39.4663 15.0411 39.6812 15.4182C39.8343 15.6868 39.7782 16.0408 39.5298 16.2559C39.13 16.6022 38.4967 17.0952 37.8911 17.3332C37.6446 17.43 37.3948 17.3106 37.2693 17.0902Z" fill="white"/>
<path d="M42.84 9.73941C42.466 9.63762 42.1952 9.19613 42.2431 8.80293C42.3011 8.32616 42.3556 7.74139 42.3953 7.27823C42.4308 6.86372 42.8071 6.64106 43.1864 6.81356C43.4849 6.94927 43.6838 7.28754 43.6545 7.6133C43.6139 8.06541 43.5523 8.71712 43.4869 9.29373C43.4485 9.6323 43.1612 9.82683 42.84 9.73941Z" fill="white"/>
<path d="M41.2255 14.3347C40.8081 14.1724 40.5831 13.5407 40.7764 13.1194C40.99 12.6538 41.1942 12.1625 41.337 11.8089C41.4552 11.5161 41.7333 11.3933 42.0122 11.5157C42.3932 11.6829 42.6098 12.2249 42.449 12.6256C42.2604 13.0953 42.0109 13.6857 41.781 14.1318C41.6695 14.3482 41.4474 14.4211 41.2255 14.3347Z" fill="white"/>
<path d="M32.8371 17.5716C32.7429 17.2715 32.8378 16.9414 33.0999 16.8861C33.5614 16.7887 34.0225 16.9396 34.4595 16.9355C34.8137 16.9322 35.2341 17.1286 35.3575 17.5215C35.4458 17.8028 35.3611 18.116 35.1175 18.1761C34.6399 18.294 34.2267 18.0655 33.6956 18.1171C33.3484 18.1508 32.9593 17.9608 32.8371 17.5716Z" fill="white"/>
<path d="M28.0011 17.3189C28.0321 17.2615 28.0807 17.217 28.1364 17.1971C28.9272 16.9137 29.764 16.8485 30.3171 16.8427C30.6238 16.8394 30.7621 17.1982 30.5882 17.5103C30.4655 17.7304 30.2288 17.8412 30.0239 17.7907C29.6307 17.6938 28.9484 17.5765 28.1916 17.6723C28.0181 17.6943 27.9059 17.4954 28.0011 17.3189Z" fill="white"/>
<path fill-rule="evenodd" clip-rule="evenodd" d="M14.9122 38.9174C12.863 37.628 11.3722 35.7011 11.1169 33.1492C11.0734 32.7151 11.4295 32.3604 11.8631 32.3604C12.2967 32.3604 12.6421 32.7157 12.6974 33.1484C12.9404 35.0494 14.0666 36.5221 15.7447 37.578C17.6693 38.789 20.2875 39.4202 22.9522 39.4202C25.6169 39.4202 28.2351 38.789 30.1597 37.578C31.8378 36.5221 32.9641 35.0494 33.207 33.1484C33.2623 32.7157 33.6077 32.3604 34.0413 32.3604C34.4749 32.3604 34.831 32.7151 34.7875 33.1492C34.5322 35.7011 33.0414 37.628 30.9922 38.9174C28.7584 40.323 25.8321 41 22.9522 41C20.0723 41 17.146 40.323 14.9122 38.9174Z" fill="black"/>
<path d="M63.5112 29.5348C63.4728 27.8176 63.5783 26.1005 63.8276 24.3834C64.096 22.6662 64.5083 21.0552 65.0644 19.5503C64.7959 19.4345 64.4795 19.3284 64.1152 19.2319C63.7509 19.1162 63.4632 19.0101 63.2523 18.9136C63.0222 18.7785 62.7921 18.5856 62.562 18.3348C62.3319 18.0647 62.1689 17.8139 62.073 17.5823C61.9771 17.3508 61.9771 17.1675 62.073 17.0325C62.1881 16.8781 62.4661 16.8588 62.9071 16.9746C63.329 17.2447 63.7604 17.428 64.2015 17.5244C64.6425 17.6016 65.0356 17.727 65.3808 17.9007C65.8602 16.5501 66.3204 15.3828 66.7614 14.3989C67.2216 13.3956 67.5572 12.73 67.7681 12.402C67.9407 12.1704 68.2091 12.0161 68.5735 11.9389C68.957 11.8617 69.5514 11.8039 70.3568 11.7653C70.5294 11.7653 70.6924 11.7653 70.8458 11.7653C71.0184 11.746 71.1334 11.7749 71.1909 11.8521C71.2676 11.9293 71.2772 12.0547 71.2197 12.2283C71.1813 12.402 71.0375 12.6721 70.7882 13.0387C70.2897 13.7525 69.8486 14.5339 69.4651 15.3828C69.1008 16.2125 68.6981 17.1482 68.2571 18.1901C68.7365 18.248 69.3213 18.2287 70.0116 18.1322C70.702 18.0164 71.4114 17.8428 72.1401 17.6113C72.8688 17.3604 73.5687 17.0517 74.2398 16.6852C74.911 16.3186 75.4766 15.8941 75.9369 15.4118C76.4162 14.9101 76.7422 14.3699 76.9148 13.7911C77.0874 13.193 77.0394 12.5563 76.771 11.881C76.4834 11.3408 76.0327 10.9067 75.4191 10.5787C74.8247 10.2314 74.1631 9.96131 73.4345 9.76837C72.725 9.57543 72.0059 9.45002 71.2772 9.39214C70.5677 9.33426 69.9637 9.31497 69.4651 9.33426C67.9886 9.37285 66.5313 9.55614 65.0931 9.88413C63.655 10.1928 62.3031 10.598 61.0375 11.0996C59.7719 11.6013 58.631 12.1704 57.6147 12.8071C56.6176 13.4438 55.8122 14.0902 55.1986 14.7461C54.8726 15.1127 54.7 15.4407 54.6809 15.7301C54.6809 16.0002 54.7671 16.2414 54.9397 16.4536C55.1123 16.6659 55.3424 16.8588 55.63 17.0325C55.9368 17.2061 56.2245 17.3604 56.4929 17.4955C56.7614 17.6306 56.9915 17.756 57.1833 17.8717C57.375 17.9682 57.4613 18.0743 57.4421 18.1901C57.4229 18.3058 57.2216 18.383 56.8381 18.4216C56.4738 18.4409 56.0423 18.412 55.5438 18.3348C55.0452 18.2576 54.537 18.1322 54.0193 17.9586C53.5016 17.7656 53.0893 17.5052 52.7825 17.1772C52.3223 16.4633 52.1593 15.7591 52.2935 15.0645C52.4086 14.3699 52.7633 13.7043 53.3577 13.0676C53.933 12.4116 54.7096 11.7942 55.6876 11.2154C56.6655 10.6366 57.7489 10.1253 58.9378 9.68155C60.1459 9.2185 61.4306 8.82298 62.7921 8.49498C64.1727 8.16699 65.5629 7.92582 66.9627 7.77147C68.4584 7.61712 69.9062 7.56889 71.306 7.62677C72.7058 7.68465 73.981 7.86794 75.1315 8.17664C76.3012 8.48534 77.2983 8.92909 78.1229 9.5079C78.9666 10.0674 79.5706 10.7813 79.9349 11.6495C80.165 12.3441 80.1842 13.1158 79.9925 13.9648C79.8199 14.7944 79.446 15.6144 78.8707 16.4247C78.2954 17.2157 77.5284 17.9393 76.5696 18.5952C75.6301 19.2512 74.4987 19.7432 73.1756 20.0712C72.1401 20.3413 71.1909 20.4571 70.328 20.4185C69.4651 20.3606 68.631 20.3027 67.8256 20.2449C67.1161 22.2321 66.6655 24.1229 66.4738 25.9172C66.282 27.7115 66.2341 29.4576 66.33 31.1555C66.3491 31.5799 66.1957 31.8114 65.8697 31.85C65.5629 31.9079 65.2178 31.8307 64.8343 31.6185C64.4508 31.4256 64.1056 31.1362 63.7988 30.7503C63.5112 30.3837 63.4153 29.9785 63.5112 29.5348Z" fill="#4F42B5"/>
<path d="M84.0546 20.1002C84.1313 19.83 84.2943 19.695 84.5436 19.695C84.812 19.6757 85.0805 19.7336 85.3489 19.8686C85.6366 19.9844 85.8859 20.158 86.0968 20.3896C86.3077 20.6211 86.4036 20.8333 86.3844 21.0263L85.7804 24.8175C85.627 26.1487 85.6174 27.1424 85.7516 27.7984C85.8859 28.435 86.1064 28.8209 86.4132 28.956C86.72 29.0717 87.0747 28.9753 87.4774 28.6666C87.8801 28.3386 88.2732 27.8852 88.6567 27.3064C89.0594 26.7083 89.4046 26.0233 89.6922 25.2516C89.999 24.4605 90.2003 23.6598 90.2962 22.8495C90.3154 22.6373 90.4017 22.4926 90.5551 22.4154C90.7085 22.3382 90.8715 22.3189 91.0441 22.3575C91.2166 22.3961 91.3604 22.4926 91.4755 22.6469C91.5906 22.782 91.6193 22.9653 91.5618 23.1968C91.4659 23.8528 91.2837 24.6149 91.0153 25.4831C90.766 26.332 90.4209 27.1424 89.9798 27.9141C89.558 28.6666 89.0306 29.3129 88.3978 29.8531C87.765 30.3934 87.0364 30.6828 86.2118 30.7213C85.4256 30.7599 84.7929 30.5863 84.3135 30.2004C83.8341 29.7952 83.4889 29.2647 83.278 28.6087C83.2013 28.3965 83.1342 28.1939 83.0766 28.0009C83.0191 27.7887 82.9712 27.5668 82.9328 27.3353C82.837 27.5475 82.7411 27.7694 82.6452 28.0009C82.5685 28.2132 82.463 28.4254 82.3288 28.6376C81.6768 29.6988 80.9002 30.3644 79.999 30.6345C79.0977 30.9046 78.1006 30.6731 77.0076 29.94C76.6241 29.6698 76.3748 29.2454 76.2598 28.6666C76.1447 28.0878 76.1255 27.4414 76.2022 26.7275C76.2598 26.0137 76.3748 25.2902 76.5474 24.557C76.72 23.8238 76.9021 23.1679 77.0939 22.589C77.2665 22.0874 77.4774 21.5568 77.7267 20.9973C77.976 20.4378 78.254 19.9072 78.5608 19.4056C78.8868 18.8847 79.2416 18.4313 79.6251 18.0454C80.0277 17.6402 80.4496 17.3508 80.8906 17.1772C81.3509 16.9842 81.8302 16.936 82.3288 17.0325C82.8274 17.1289 83.3451 17.4183 83.882 17.9007C84.1313 18.1129 84.2368 18.3058 84.1984 18.4795C84.1601 18.6531 84.0642 18.7882 83.9108 18.8847C83.7574 18.9811 83.5752 19.039 83.3643 19.0583C83.1725 19.0776 83.0383 19.039 82.9616 18.9425C82.8274 18.8654 82.7123 18.7882 82.6164 18.711C82.5206 18.6338 82.4055 18.6145 82.2713 18.6531C82.1562 18.6917 82.0028 18.8075 81.8111 19.0004C81.6385 19.1934 81.3988 19.5213 81.092 19.9844C80.8044 20.4474 80.5263 20.9877 80.2579 21.6051C79.9894 22.2032 79.7497 22.8302 79.5388 23.4862C79.347 24.1229 79.184 24.7692 79.0498 25.4252C78.9347 26.0812 78.8676 26.6793 78.8485 27.2195C78.8293 27.7405 78.858 28.1939 78.9347 28.5797C79.0306 28.9463 79.2032 29.1875 79.4525 29.3033C79.6442 29.3226 79.8552 29.255 80.0853 29.1007C80.3346 28.927 80.5742 28.6955 80.8044 28.4061C81.0536 28.1167 81.2933 27.7694 81.5234 27.3642C81.7727 26.9591 82.0028 26.5057 82.2138 26.004C82.5973 25.0586 82.9328 24.0747 83.2205 23.0521C83.5081 22.0295 83.7861 21.0456 84.0546 20.1002Z" fill="#4F42B5"/>
<path d="M90.1962 17.4087C90.0812 17.3894 89.9565 17.2929 89.8223 17.1193C89.6881 16.9456 89.573 16.7623 89.4771 16.5694C89.4004 16.3765 89.3525 16.1932 89.3333 16.0195C89.3333 15.8459 89.3908 15.7494 89.5059 15.7301C89.8319 15.7301 90.1483 15.7301 90.4551 15.7301C90.7811 15.7108 91.107 15.7012 91.433 15.7012C91.6631 14.7751 91.8741 14.0226 92.0658 13.4438C92.2767 12.8457 92.4685 12.373 92.6411 12.0257C92.7561 11.8907 92.9575 11.8039 93.2451 11.7653C93.5327 11.7267 93.83 11.7363 94.1368 11.7942C94.4436 11.8328 94.712 11.9196 94.9421 12.0547C95.1722 12.1897 95.2777 12.3537 95.2585 12.5467C95.0668 12.7203 94.875 13.0772 94.6833 13.6175C94.5107 14.1384 94.2998 14.8426 94.0505 15.7301H96.294C96.4858 15.7108 96.6392 15.7591 96.7542 15.8748C96.8693 15.9906 96.9268 16.1257 96.9268 16.28C96.946 16.4151 96.9076 16.5501 96.8117 16.6852C96.7159 16.8202 96.5625 16.8974 96.3515 16.9167L93.6478 17.1772C93.456 17.9103 93.2739 18.6628 93.1013 19.4345C92.9287 20.2063 92.7753 20.9491 92.6411 21.6629C92.5069 22.3768 92.3822 23.0328 92.2672 23.6309C92.1713 24.2097 92.1042 24.6824 92.0658 25.049C92.0083 25.4735 91.9795 25.9172 91.9795 26.3803C91.9987 26.8433 92.0466 27.2774 92.1233 27.6826C92.2 28.0878 92.3151 28.435 92.4685 28.7244C92.6219 28.9946 92.8041 29.1586 93.015 29.2164C93.456 29.3129 93.8971 29.1489 94.3381 28.7244C94.7791 28.3 95.1818 27.7501 95.5462 27.0748C95.9105 26.3996 96.2173 25.676 96.4666 24.9043C96.7159 24.1325 96.8885 23.4476 96.9843 22.8495C97.0035 22.6373 97.0898 22.4926 97.2432 22.4154C97.3966 22.3382 97.5596 22.3189 97.7322 22.3575C97.9048 22.3961 98.0486 22.4926 98.1636 22.6469C98.2787 22.782 98.3074 22.9653 98.2499 23.1968C98.154 23.8528 97.9719 24.6149 97.7034 25.4831C97.4541 26.332 97.109 27.1424 96.6679 27.9141C96.2461 28.6666 95.7187 29.3129 95.086 29.8531C94.4532 30.3934 93.7245 30.6828 92.9 30.7213C92.1138 30.7599 91.481 30.5863 91.0016 30.2004C90.5222 29.7952 90.177 29.2647 89.9661 28.6087C89.7935 28.0878 89.6977 27.4028 89.6785 26.5539C89.6785 25.705 89.736 24.7692 89.8511 23.7467C89.9661 22.7241 90.1195 21.6629 90.3113 20.5632C90.5222 19.4635 90.7427 18.4023 90.9728 17.3797C90.8386 17.399 90.7044 17.4087 90.5701 17.4087C90.4551 17.4087 90.3304 17.4087 90.1962 17.4087Z" fill="#4F42B5"/>
<path d="M99.1209 23.7756C99.0058 24.4123 98.8908 25.0104 98.7757 25.5699C98.6799 26.1294 98.5744 26.689 98.4593 27.2485C98.3635 27.7887 98.258 28.3386 98.1429 28.8981C98.0471 29.4383 97.932 30.0171 97.7978 30.6345C97.7594 30.7503 97.6156 30.8275 97.3663 30.8661C97.1171 30.9239 96.8486 30.9432 96.561 30.9239C96.2733 30.9239 96.0145 30.8853 95.7844 30.8082C95.5351 30.731 95.4104 30.6249 95.4104 30.4898C95.7172 29.1007 96.0336 27.5958 96.3596 25.9751C96.6856 24.3544 97.0116 22.7048 97.3376 21.0263C97.6827 19.3477 98.0087 17.6788 98.3155 16.0195C98.6223 14.3603 98.9004 12.7878 99.1497 11.3022C99.188 11.0514 99.2551 10.7427 99.351 10.3761C99.466 10.0095 99.6099 9.65261 99.7824 9.30532C99.955 8.93874 100.147 8.63004 100.358 8.37922C100.588 8.10911 100.837 7.96441 101.106 7.94511C101.489 7.92582 101.834 7.99335 102.141 8.1477C102.467 8.28275 102.745 8.48534 102.975 8.75545C103.224 9.00627 103.416 9.31497 103.55 9.68155C103.704 10.0481 103.8 10.434 103.838 10.8392C103.896 11.4566 103.809 12.1126 103.579 12.8071C103.349 13.5017 103.052 14.1963 102.688 14.8909C102.323 15.5854 101.911 16.2511 101.451 16.8878C100.991 17.5244 100.559 18.0743 100.156 18.5374L99.7249 20.5053C100.051 19.9458 100.396 19.4345 100.76 18.9715C101.144 18.4891 101.527 18.1708 101.911 18.0164C102.256 17.8621 102.678 17.8139 103.177 17.8717C103.675 17.9296 104.154 18.055 104.615 18.248C105.171 18.4795 105.506 18.9232 105.621 19.5792C105.736 20.2159 105.746 20.9587 105.65 21.8077C105.554 22.6373 105.401 23.4959 105.19 24.3834C104.998 25.2709 104.874 26.0909 104.816 26.8433C104.758 27.5765 104.826 28.1746 105.017 28.6376C105.209 29.0814 105.65 29.2743 106.34 29.2164C106.877 29.12 107.376 28.8306 107.836 28.3482C108.296 27.8466 108.699 27.2774 109.044 26.6407C109.409 25.9847 109.706 25.3191 109.936 24.6438C110.166 23.9493 110.31 23.3608 110.367 22.8785C110.386 22.6662 110.463 22.5215 110.597 22.4443C110.751 22.3672 110.904 22.3479 111.058 22.3865C111.23 22.4058 111.374 22.4926 111.489 22.6469C111.604 22.782 111.633 22.9653 111.575 23.1968C111.364 24.1036 111.086 25.0297 110.741 25.9751C110.415 26.9205 109.993 27.7791 109.476 28.5508C108.958 29.3033 108.325 29.911 107.577 30.3741C106.849 30.8178 105.976 31.0011 104.96 30.9239C104.174 30.9046 103.56 30.7696 103.119 30.5188C102.697 30.2679 102.39 29.9303 102.199 29.5058C102.026 29.0814 101.94 28.599 101.94 28.0588C101.959 27.4993 102.016 26.9108 102.112 26.2934C102.208 25.676 102.333 25.0586 102.486 24.4412C102.64 23.8046 102.764 23.1872 102.86 22.589C103.033 21.3928 103.109 20.5439 103.09 20.0423C103.09 19.5406 103.023 19.2705 102.889 19.2319C102.601 19.1355 102.275 19.2126 101.911 19.4635C101.566 19.7143 101.221 20.0712 100.875 20.5343C100.53 20.978 100.195 21.4893 99.8687 22.0681C99.5619 22.6469 99.3126 23.2161 99.1209 23.7756ZM101.71 10.6945C101.671 10.8102 101.633 10.9453 101.595 11.0996C101.556 11.2347 101.508 11.4662 101.451 11.7942C101.393 12.1029 101.307 12.5274 101.192 13.0676C101.096 13.6078 100.962 14.3313 100.789 15.2381C101.058 14.6979 101.297 14.1577 101.508 13.6175C101.738 13.0579 101.93 12.537 102.083 12.0547C102.16 11.7846 102.189 11.5337 102.17 11.3022C102.17 11.0707 102.141 10.8874 102.083 10.7523C102.026 10.6173 101.959 10.5401 101.882 10.5208C101.825 10.5015 101.767 10.5594 101.71 10.6945Z" fill="#4F42B5"/>
<path d="M117.124 17.727C117.22 17.5341 117.421 17.3894 117.728 17.2929C118.054 17.1772 118.38 17.1193 118.706 17.1193C119.051 17.1193 119.358 17.1772 119.627 17.2929C119.914 17.4087 120.058 17.5823 120.058 17.8139C119.636 19.2609 119.339 20.6307 119.166 21.9234C118.994 23.1968 119.013 24.5184 119.224 25.8883C119.377 26.853 119.502 27.6054 119.598 28.1456C119.713 28.6666 119.828 29.0235 119.943 29.2164C120.058 29.4094 120.192 29.4576 120.346 29.3611C120.518 29.2647 120.739 29.0621 121.007 28.7534C121.372 28.3482 121.717 27.9045 122.043 27.4221C122.369 26.9398 122.666 26.3899 122.934 25.7725C123.203 25.1551 123.433 24.4702 123.625 23.7177C123.836 22.946 123.989 22.0874 124.085 21.142C123.682 20.8912 123.414 20.5632 123.28 20.158C123.145 19.7529 123.107 19.3381 123.164 18.9136C123.222 18.4698 123.356 18.0357 123.567 17.6113C123.797 17.1675 124.075 16.7816 124.401 16.4536C124.746 16.1257 125.111 15.8845 125.494 15.7301C125.897 15.5758 126.309 15.5468 126.731 15.6433C127.306 16.0678 127.652 16.5212 127.767 17.0035C127.901 17.4666 127.901 17.92 127.767 18.3637C127.632 18.8075 127.412 19.203 127.105 19.5503C126.817 19.8976 126.539 20.158 126.271 20.3317C126.482 20.4474 126.722 20.5343 126.99 20.5921C127.258 20.6307 127.527 20.65 127.795 20.65C128.083 20.65 128.361 20.6404 128.629 20.6211C128.898 20.5825 129.138 20.5536 129.349 20.5343C129.617 20.515 129.857 20.5053 130.068 20.5053C130.279 20.486 130.461 20.515 130.614 20.5921C130.787 20.65 130.911 20.7561 130.988 20.9105C131.084 21.0648 131.151 21.2867 131.189 21.5761C130.959 21.8655 130.739 22.0681 130.528 22.1839C130.317 22.2803 129.972 22.3382 129.492 22.3575C128.898 22.3961 128.313 22.4154 127.738 22.4154C127.182 22.3961 126.626 22.2803 126.07 22.0681C125.935 22.9363 125.744 23.8238 125.494 24.7307C125.264 25.6182 124.967 26.4574 124.603 27.2485C124.257 28.0202 123.845 28.7148 123.366 29.3322C122.906 29.9303 122.388 30.3741 121.813 30.6635C121.525 30.8178 121.199 30.9336 120.835 31.0108C120.489 31.1072 120.154 31.1555 119.828 31.1555C119.502 31.1555 119.195 31.0976 118.908 30.9818C118.639 30.8853 118.438 30.7213 118.303 30.4898C118.035 30.1232 117.814 29.747 117.642 29.3611C117.489 28.9753 117.335 28.5701 117.182 28.1456C116.856 28.7052 116.511 29.2068 116.146 29.6505C115.782 30.0943 115.35 30.4319 114.852 30.6635C114.564 30.8178 114.238 30.9336 113.874 31.0108C113.529 31.1072 113.193 31.1555 112.867 31.1555C112.541 31.1555 112.234 31.0976 111.947 30.9818C111.678 30.8853 111.477 30.7213 111.343 30.4898C110.748 29.5637 110.317 28.5508 110.048 27.4511C109.78 26.3513 109.627 25.2419 109.588 24.1229C109.55 22.9846 109.588 21.8655 109.703 20.7658C109.818 19.666 109.972 18.6531 110.163 17.727C110.259 17.5341 110.461 17.3894 110.768 17.2929C111.093 17.1772 111.419 17.1193 111.745 17.1193C112.091 17.1193 112.397 17.1772 112.666 17.2929C112.954 17.4087 113.097 17.5823 113.097 17.8139C112.675 19.2609 112.378 20.6307 112.206 21.9234C112.033 23.1968 112.052 24.5184 112.263 25.8883C112.417 26.853 112.541 27.6054 112.637 28.1456C112.752 28.6666 112.867 29.0235 112.982 29.2164C113.097 29.4094 113.232 29.4576 113.385 29.3611C113.558 29.2647 113.778 29.0621 114.047 28.7534C114.545 28.2132 115.005 27.5861 115.427 26.8723C115.868 26.1584 116.242 25.2805 116.549 24.2387C116.491 23.081 116.52 21.9427 116.635 20.8237C116.769 19.7046 116.932 18.6724 117.124 17.727Z" fill="#4F42B5"/>
<path d="M136.918 20.1002C136.995 19.83 137.158 19.695 137.407 19.695C137.676 19.6757 137.944 19.7336 138.213 19.8686C138.5 19.9844 138.749 20.158 138.96 20.3896C139.171 20.6211 139.267 20.8333 139.248 21.0263L138.644 24.8175C138.491 26.1487 138.481 27.1424 138.615 27.7984C138.749 28.435 138.97 28.8209 139.277 28.956C139.584 29.0717 139.938 28.9753 140.341 28.6666C140.744 28.3386 141.137 27.8852 141.52 27.3064C141.923 26.7083 142.268 26.0233 142.556 25.2516C142.863 24.4605 143.064 23.6598 143.16 22.8495C143.179 22.6373 143.265 22.4926 143.419 22.4154C143.572 22.3382 143.735 22.3189 143.908 22.3575C144.08 22.3961 144.224 22.4926 144.339 22.6469C144.454 22.782 144.483 22.9653 144.425 23.1968C144.33 23.8528 144.147 24.6149 143.879 25.4831C143.63 26.332 143.284 27.1424 142.843 27.9141C142.422 28.6666 141.894 29.3129 141.261 29.8531C140.629 30.3934 139.9 30.6828 139.075 30.7213C138.289 30.7599 137.656 30.5863 137.177 30.2004C136.698 29.7952 136.353 29.2647 136.142 28.6087C136.065 28.3965 135.998 28.1939 135.94 28.0009C135.883 27.7887 135.835 27.5668 135.796 27.3353C135.701 27.5475 135.605 27.7694 135.509 28.0009C135.432 28.2132 135.327 28.4254 135.192 28.6376C134.54 29.6988 133.764 30.3644 132.863 30.6345C131.961 30.9046 130.964 30.6731 129.871 29.94C129.488 29.6698 129.238 29.2454 129.123 28.6666C129.008 28.0878 128.989 27.4414 129.066 26.7275C129.123 26.0137 129.238 25.2902 129.411 24.557C129.584 23.8238 129.766 23.1679 129.958 22.589C130.13 22.0874 130.341 21.5568 130.59 20.9973C130.84 20.4378 131.118 19.9072 131.424 19.4056C131.75 18.8847 132.105 18.4313 132.489 18.0454C132.891 17.6402 133.313 17.3508 133.754 17.1772C134.214 16.9842 134.694 16.936 135.192 17.0325C135.691 17.1289 136.209 17.4183 136.746 17.9007C136.995 18.1129 137.1 18.3058 137.062 18.4795C137.024 18.6531 136.928 18.7882 136.774 18.8847C136.621 18.9811 136.439 19.039 136.228 19.0583C136.036 19.0776 135.902 19.039 135.825 18.9425C135.691 18.8654 135.576 18.7882 135.48 18.711C135.384 18.6338 135.269 18.6145 135.135 18.6531C135.02 18.6917 134.866 18.8075 134.675 19.0004C134.502 19.1934 134.262 19.5213 133.956 19.9844C133.668 20.4474 133.39 20.9877 133.121 21.6051C132.853 22.2032 132.613 22.8302 132.402 23.4862C132.211 24.1229 132.048 24.7692 131.913 25.4252C131.798 26.0812 131.731 26.6793 131.712 27.2195C131.693 27.7405 131.722 28.1939 131.798 28.5797C131.894 28.9463 132.067 29.1875 132.316 29.3033C132.508 29.3226 132.719 29.255 132.949 29.1007C133.198 28.927 133.438 28.6955 133.668 28.4061C133.917 28.1167 134.157 27.7694 134.387 27.3642C134.636 26.9591 134.866 26.5057 135.077 26.004C135.461 25.0586 135.796 24.0747 136.084 23.0521C136.372 22.0295 136.65 21.0456 136.918 20.1002Z" fill="#4F42B5"/>
<path d="M147.921 30.0557C147.23 30.6924 146.473 31.0397 145.649 31.0976C145.303 31.0783 144.958 31.0011 144.613 30.8661C144.268 30.7503 143.951 30.6056 143.664 30.4319C143.376 30.2583 143.127 30.0654 142.916 29.8531C142.724 29.6216 142.6 29.3997 142.542 29.1875C142.312 28.4158 142.216 27.4993 142.254 26.4381C142.312 25.3577 142.427 24.2772 142.6 23.1968C142.791 22.1164 143.012 21.1034 143.261 20.158C143.53 19.1934 143.769 18.4505 143.98 17.9296C144.076 17.7946 144.268 17.7077 144.556 17.6691C144.862 17.6306 145.169 17.6402 145.476 17.6981C145.783 17.7367 146.051 17.8235 146.281 17.9586C146.511 18.0936 146.617 18.2576 146.598 18.4505C146.425 18.6821 146.243 19.0776 146.051 19.6371C145.879 20.1773 145.716 20.814 145.562 21.5472C145.409 22.2611 145.284 23.0232 145.188 23.8335C145.112 24.6438 145.073 25.4059 145.073 26.1198C145.092 26.8337 145.169 27.4704 145.303 28.0299C145.438 28.5894 145.658 28.9753 145.965 29.1875C146.214 29.3611 146.463 29.3804 146.713 29.2454C146.962 29.1103 147.211 28.8884 147.461 28.5797C147.71 28.2518 147.94 27.8659 148.151 27.4221C148.362 26.9591 148.554 26.5057 148.726 26.0619C149.071 24.1904 149.321 22.6662 149.474 21.4893C149.647 20.2931 149.742 19.3284 149.762 18.5952C149.819 18.3251 149.982 18.1611 150.251 18.1033C150.538 18.0454 150.835 18.055 151.142 18.1322C151.468 18.2094 151.756 18.3348 152.005 18.5084C152.274 18.6628 152.408 18.8268 152.408 19.0004C152.389 19.9651 152.302 21.1227 152.149 22.4733C152.015 23.8046 151.823 25.2033 151.574 26.6697C151.344 28.136 151.066 29.5927 150.74 31.0397C150.414 32.506 150.068 33.8469 149.704 35.0624C150.03 35.0624 150.337 35.0721 150.625 35.0914C150.931 35.1107 151.267 35.1396 151.631 35.1782C151.842 35.2168 151.996 35.3133 152.091 35.4676C152.187 35.622 152.216 35.786 152.178 35.9596C152.139 36.1332 152.024 36.2876 151.833 36.4226C151.66 36.5577 151.401 36.6059 151.056 36.5673C150.73 36.5288 150.414 36.5095 150.107 36.5095C149.819 36.5095 149.541 36.5191 149.273 36.5384C148.832 37.8697 148.333 39.1045 147.777 40.2428C147.221 41.4004 146.579 42.3748 145.85 43.1658C145.505 43.5517 145.073 43.87 144.556 44.1208C144.057 44.3717 143.539 44.5453 143.002 44.6418C142.485 44.7382 141.967 44.7382 141.449 44.6418C140.931 44.5646 140.5 44.3813 140.155 44.0919C139.79 43.8025 139.532 43.407 139.378 42.9053C139.206 42.4037 139.206 41.7766 139.378 41.0242C139.512 40.4261 139.771 39.8087 140.155 39.172C140.538 38.5546 141.046 37.9758 141.679 37.4356C142.293 36.8953 143.031 36.4226 143.894 36.0175C144.757 35.6316 145.744 35.3711 146.857 35.2361C146.952 34.8116 147.039 34.4065 147.115 34.0206C147.192 33.654 147.269 33.2681 147.346 32.863C147.441 32.4771 147.528 32.0526 147.604 31.5896C147.7 31.1458 147.806 30.6345 147.921 30.0557ZM145.303 40.7348C145.495 40.4068 145.696 39.9052 145.907 39.2299C146.118 38.5739 146.329 37.7925 146.54 36.8857C144.91 37.2523 143.597 37.8504 142.6 38.68C141.622 39.5289 141.085 40.5129 140.989 41.6319C140.931 42.3265 141.056 42.7896 141.363 43.0211C141.65 43.2719 142.024 43.3298 142.485 43.1947C142.945 43.079 143.434 42.7992 143.951 42.3555C144.469 41.931 144.92 41.3908 145.303 40.7348Z" fill="#4F42B5"/>
<path d="M159.789 17.8717C159.501 18.2769 159.271 18.6531 159.099 19.0004C158.926 19.3284 158.744 19.7046 158.552 20.1291C158.322 20.6307 158.274 21.0938 158.408 21.5182C158.543 21.9234 158.773 22.3382 159.099 22.7627C159.444 23.1679 159.837 23.5923 160.278 24.0361C160.738 24.4798 161.16 24.9911 161.544 25.5699C161.946 25.4542 162.339 25.3384 162.723 25.2226C163.106 25.1069 163.442 24.9429 163.73 24.7307C164.036 24.4991 164.286 24.2097 164.477 23.8624C164.688 23.4959 164.823 23.0232 164.88 22.4443C164.861 22.1742 164.918 22.0006 165.053 21.9234C165.187 21.8462 165.331 21.8366 165.484 21.8945C165.657 21.9524 165.81 22.0778 165.944 22.2707C166.079 22.4443 166.146 22.6566 166.146 22.9074C166.126 23.5634 166.002 24.1133 165.772 24.557C165.561 25.0008 165.273 25.377 164.909 25.6857C164.564 25.9751 164.161 26.2259 163.701 26.4381C163.26 26.6311 162.8 26.8144 162.32 26.988C162.627 27.3739 162.809 27.7501 162.867 28.1167C162.943 28.464 162.934 28.792 162.838 29.1007C162.742 29.4094 162.569 29.6891 162.32 29.94C162.09 30.1908 161.822 30.3934 161.515 30.5477C160.844 30.8757 160.057 31.0493 159.156 31.0686C158.274 31.1072 157.45 31.0397 156.683 30.8661C156.165 30.7696 155.8 30.5959 155.59 30.3451C155.379 30.0943 155.283 29.8049 155.302 29.4769C155.302 28.9367 155.398 28.4929 155.59 28.1456C155.8 27.7791 156.079 27.48 156.424 27.2485C156.769 26.9977 157.162 26.8047 157.603 26.6697C158.044 26.5153 158.504 26.3803 158.984 26.2645C158.485 25.7436 158.015 25.2902 157.574 24.9043C157.133 24.4991 156.759 24.1229 156.452 23.7756C156.146 23.4283 155.916 23.081 155.762 22.7338C155.628 22.3672 155.609 21.9524 155.705 21.4893C155.839 20.7754 156.107 19.9458 156.51 19.0004C156.932 18.0357 157.382 17.1 157.862 16.1932C157.939 16.0388 158.102 16.0099 158.351 16.1064C158.619 16.1835 158.878 16.3282 159.127 16.5405C159.377 16.7527 159.578 16.9842 159.731 17.235C159.885 17.4859 159.904 17.6981 159.789 17.8717ZM156.97 29.3033C157.028 29.419 157.191 29.5251 157.459 29.6216C157.728 29.6988 158.034 29.7567 158.38 29.7952C158.725 29.8145 159.07 29.8049 159.415 29.7663C159.76 29.7277 160.038 29.6409 160.249 29.5058C160.46 29.3708 160.566 29.1875 160.566 28.956C160.585 28.7052 160.431 28.3868 160.105 28.0009C159.971 28.0395 159.722 28.1167 159.358 28.2325C159.012 28.3482 158.658 28.4736 158.293 28.6087C157.929 28.7437 157.603 28.8788 157.315 29.0139C157.047 29.1296 156.932 29.2261 156.97 29.3033Z" fill="#4F42B5"/>
</svg>
