<svg width="602" height="308" viewBox="0 0 602 308" fill="none" xmlns="http://www.w3.org/2000/svg">
<path d="M445.972 111.814C448.029 116.314 452.186 119.143 457.115 119.443C462.043 119.743 466.5 117.386 469.072 113.186C471.943 108.429 477 105.557 482.529 105.429C488.058 105.3 493.2 108.043 496.286 112.671L534.686 171.043C537.343 175.071 541.8 177.257 546.6 176.914C551.4 176.571 555.472 173.743 557.529 169.371L558.6 167.014C526.415 95.4 470.015 40.1143 401.615 14.8714L445.972 111.814Z" fill="#EAEDFB"/>
<path d="M194.143 78.4286C197.529 78.0429 200.443 75.9857 201.9 72.9L228.257 17.2286C206.615 25.8857 186.257 37.5429 167.529 51.7714L185.4 74.7C187.5 77.4429 190.757 78.8143 194.143 78.4286Z" fill="#EAEDFB"/>
<path d="M298.414 80.4C303.214 80.5285 307.585 78.1714 310.028 74.0571L332.442 36.3C335.571 31.0714 341.057 28.1571 347.142 28.5C353.228 28.8428 358.371 32.3571 360.9 37.8857L423.642 174.943C425.7 179.443 429.857 182.271 434.785 182.571C439.714 182.871 444.171 180.514 446.742 176.314C449.614 171.557 454.671 168.686 460.2 168.557C465.771 168.471 470.871 171.171 473.957 175.8L512.357 234.171C515.014 238.2 519.428 240.386 524.271 240.043C529.071 239.7 533.142 236.871 535.2 232.5L562.071 174.9C561.471 173.486 560.871 172.071 560.271 170.657C557.742 176.014 552.771 179.443 546.857 179.871C546.428 179.914 546.042 179.914 545.614 179.914C540.171 179.914 535.242 177.257 532.2 172.671L493.8 114.3C491.314 110.529 487.114 108.3 482.614 108.386C478.114 108.471 474 110.829 471.642 114.686C468.471 119.871 462.985 122.743 456.942 122.4C450.9 122.057 445.757 118.543 443.228 113.014L397.671 13.4571C379.714 7.19997 360.985 2.95712 341.657 1.0714L334.971 12.4285C331.928 17.4857 326.614 20.4428 320.657 20.2285C314.742 20.0571 309.6 16.8 306.857 11.5714L301.328 0.471405C285.428 1.58569 269.871 4.24283 254.828 8.31426L287.185 73.3285C289.371 77.6571 293.571 80.2714 298.414 80.4Z" fill="#EAEDFB"/>
<path d="M309.557 10.2429C311.786 14.4857 315.986 17.1 320.786 17.2714C325.586 17.4 329.957 15.0429 332.4 10.9286L338.4 0.857143C331.672 0.3 324.857 0 318 0C313.5 0 309.043 0.128571 304.629 0.385714L309.557 10.2429Z" fill="#EAEDFB"/>
<path d="M537.857 233.829C535.371 239.186 530.357 242.657 524.443 243.086C524.014 243.129 523.628 243.129 523.2 243.129C517.757 243.129 512.828 240.471 509.786 235.886L471.386 177.471C468.9 173.7 464.7 171.471 460.2 171.557C455.7 171.643 451.586 174 449.228 177.857C446.057 183.043 440.571 185.914 434.528 185.571C428.486 185.229 423.343 181.714 420.814 176.186L358.157 39.1286C356.1 34.6286 351.9 31.7571 346.971 31.5C342 31.2428 337.543 33.6 335.014 37.8428L312.6 75.6C309.557 80.6571 304.2 83.6143 298.286 83.4C292.371 83.2286 287.228 79.9714 284.486 74.7428L251.871 9.17142C245.228 11.0571 238.714 13.2428 232.286 15.6857L204.6 74.1857C202.671 78.2143 198.9 80.9143 194.486 81.3857C190.071 81.8571 185.786 80.0571 183.043 76.5428L165.171 53.6143C94.457 108.729 48.1284 201 48.1284 305.571H587.871C587.871 260.314 579.171 217.329 563.571 178.671L537.857 233.829Z" fill="#EAEDFB"/>
<path d="M5.78564 167.7C11.4428 161.186 21.9428 162.686 25.5856 170.529L55.0285 233.571C58.9714 242.057 70.6714 242.871 75.8142 235.071L107.186 187.329C111.986 180 122.786 180.214 127.371 187.671V187.671C132.343 195.857 144.428 195.129 148.414 186.429L199.671 74.4C203.657 65.6571 215.829 64.9714 220.757 73.2428L239.057 104.1C243.857 112.114 255.557 111.771 259.886 103.457L289.286 44.3571C291.429 40.0285 297.6 40.1143 299.7 44.4428L327.429 102.986C330.343 109.157 338.786 110.1 342.986 104.7L383.014 53.3571C386.743 48.6 394.329 50.5285 395.314 56.5285L404.357 112.843C405.557 120.429 415.543 122.486 419.657 116.014L451.543 65.9143" stroke="#333333" stroke-width="2.5" stroke-linecap="round" stroke-linejoin="round"/>
<circle cx="5.05714" cy="170.786" r="5.05714" fill="#333333"/>
<circle cx="65.1861" cy="240.471" r="5.05714" fill="#333333"/>
<circle cx="117.643" cy="182.014" r="5.05714" fill="#333333"/>
<circle cx="177.171" cy="124.757" r="5.05714" fill="#333333"/>
<circle cx="399.343" cy="81.6" r="5.05714" fill="#333333"/>
<circle cx="451.543" cy="66" r="5.05714" fill="#333333"/>
<circle cx="282.515" cy="56.1428" r="5.05714" fill="#333333"/>
<path d="M44.9146 305.829C44.9146 281.614 64.5431 261.986 88.7574 261.986C112.972 261.986 132.6 281.614 132.6 305.829" fill="#4F42B5"/>
<circle cx="58.1146" cy="271.2" r="16.9286" fill="#4F42B5"/>
<circle cx="182.614" cy="147.471" r="72.1714" fill="#4F42B5"/>
<circle cx="150.257" cy="93.6857" r="40.9714" fill="#4F42B5"/>
<circle cx="121.843" cy="165.086" r="26.7" fill="#4F42B5"/>
<path d="M351.514 110.014L406.114 183.943L428.571 146.529L458.185 87.3C460.457 82.8857 464.485 79.6714 469.242 78.4714L501.814 70.1571C503.099 69.8143 504.257 71.1429 503.742 72.3857L503.357 73.3286C501.428 78.0857 498.299 82.2429 494.271 85.4143L490.542 88.4143L523.457 74.9571L525.771 117.043C526.028 121.457 523.371 125.571 519.214 127.114L493.971 138.9L477.471 205.457L464.957 248.7C459.428 267.557 449.442 281.571 430.842 281.571L347.657 280.586L326.399 216.257L351.514 110.014Z" fill="#FFB400"/>
<path d="M474.385 102.943C474.385 102.943 484.971 94.7571 490.585 88.4143" stroke="#333333" stroke-width="2.5" stroke-linecap="round" stroke-linejoin="round"/>
<path d="M497.742 104.7L479.742 98.5714" stroke="#333333" stroke-width="2.5" stroke-linecap="round" stroke-linejoin="round"/>
<path d="M326.957 86.5286C326.957 86.5286 346.114 93.0429 374.443 135L405.6 181.2L431.014 115.5L496.928 154.371L479.485 220.371C471.985 248.871 460.328 276.129 444.9 301.243L441.128 307.371H318.257L326.957 86.5286Z" fill="white"/>
<path d="M405.857 180.771L413.443 205.843" stroke="#333333" stroke-width="2.5" stroke-linecap="round" stroke-linejoin="round"/>
<path d="M336.686 104.7L350.357 139.114L339.643 135.9L349.8 173.486L333.814 208.671" stroke="#333333" stroke-width="2.5" stroke-linecap="round" stroke-linejoin="round"/>
<path d="M361.971 187.071L358.329 251.529" stroke="#333333" stroke-width="2.5" stroke-linecap="round" stroke-linejoin="round"/>
<path d="M366.985 189.814L360.643 210.557" stroke="#333333" stroke-width="2.5" stroke-linecap="round" stroke-linejoin="round"/>
<path d="M428.314 142.243L445.2 152.786" stroke="#333333" stroke-width="2.5" stroke-linecap="round" stroke-linejoin="round"/>
<path d="M442.628 122.614L484.671 147.129" stroke="#333333" stroke-width="2.5" stroke-linecap="round" stroke-linejoin="round"/>
<path d="M326.956 86.5286L304.971 76.5429L320.356 259.671L326.956 86.5286Z" fill="#333333"/>
<path d="M503.957 305.486H306.471C293.314 305.486 280.757 299.829 272.014 289.971L229.2 231.814L293.228 200.357L309.257 226.5C315.385 236.486 325.457 243.471 336.943 245.7L436.757 264.9L484.928 273.429C493.243 274.886 503.614 280.371 509.4 286.543L525.814 305.529H503.957" fill="#FFB400"/>
<path d="M499.243 305.829C496.114 287.014 468.386 283.843 468.386 283.843" stroke="#333333" stroke-width="2.5" stroke-linecap="round" stroke-linejoin="round"/>
<path d="M515.1 304.929C509.186 282.771 484.671 274.5 484.671 274.5" stroke="#333333" stroke-width="2.5" stroke-linecap="round" stroke-linejoin="round"/>
<path d="M449.057 286.971C451.157 286.971 477.557 291.171 481.885 305.786" stroke="#333333" stroke-width="2.5" stroke-linecap="round" stroke-linejoin="round"/>
<path d="M431.271 290.657C431.271 290.657 457.543 296.914 459.857 305.829" stroke="#333333" stroke-width="2.5" stroke-linecap="round" stroke-linejoin="round"/>
<path d="M302.4 257.957L320.871 241.714" stroke="#333333" stroke-width="1.5" stroke-linecap="round" stroke-linejoin="round"/>
<path d="M402.943 258.643L472.071 270.9" stroke="#333333" stroke-width="2.5" stroke-linecap="round" stroke-linejoin="round"/>
<path d="M282.214 110.186L309.514 206.4C314.057 222.429 326.871 234.771 343.028 238.757L432.9 260.914L411.3 307.157H308.571C284.228 307.157 261.3 295.714 246.643 276.257L204.128 219.771C204.128 219.771 203.271 114.771 282.214 110.186Z" fill="white"/>
<path d="M590.014 63.9H569.056H568.885H511.114C505.156 63.9 500.356 68.7 500.356 74.6572V176.914H558.214V181.243C558.214 187.114 563.014 191.914 568.885 191.914C574.756 191.914 579.556 187.114 579.556 181.243V74.5714C579.556 74.0572 579.771 73.5429 579.685 73.0714C580.414 67.8857 584.656 63.9 590.014 63.9Z" fill="white" stroke="#333333" stroke-width="2.5"/>
<path d="M536.87 258.857V158.186C536.87 157.671 537.085 157.157 536.999 156.686C537.728 151.5 541.97 147.514 547.328 147.514H526.37H526.199H467.313C461.356 147.514 456.556 152.314 456.556 158.271V249.086C456.556 254.743 461.185 259.371 466.842 259.329L536.87 258.857Z" fill="white" stroke="#333333" stroke-width="2.5"/>
<path d="M494.7 218.7V218.571V218.7Z" fill="#EAEDFB"/>
<path d="M494.7 218.7V218.571" stroke="#333333"/>
<path d="M558.214 181.2V158.186C558.214 152.314 553.414 147.514 547.543 147.514C541.671 147.514 536.871 152.314 536.871 158.186V191.871H568.885C563.057 191.914 558.214 187.071 558.214 181.2Z" fill="#EAEDFB" stroke="#333333" stroke-width="2.5"/>
<path d="M477.943 248.657V225.643C477.943 219.771 482.743 214.971 488.614 214.971C494.486 214.971 499.286 219.771 499.286 225.643V259.329H467.271C473.143 259.329 477.943 254.529 477.943 248.657Z" fill="#EAEDFB" stroke="#333333" stroke-width="2.5"/>
<path d="M488.613 214.971C494.485 214.971 499.285 219.771 499.285 225.643V259.329L498.685 305.571H553.67C559.242 305.571 563.742 301.071 563.742 295.5V225.557C563.742 219.729 559.028 215.014 553.199 215.014H488.613V214.971Z" fill="white" stroke="#333333" stroke-width="2.5"/>
<path d="M552.557 306.129H455.014C452.828 306.129 451.071 304.371 451.071 302.186C451.071 300 452.828 298.243 455.014 298.243H484.585L497.742 268.629C498.642 266.614 500.657 265.286 502.842 265.286H564.857C567.214 265.286 568.799 267.686 567.899 269.871L552.557 306.129Z" fill="#333333"/>
<circle cx="525.942" cy="286.157" r="4.07143" fill="white"/>
<path d="M600 74.1C600 68.4429 595.414 63.8571 589.757 63.8571C584.1 63.8571 579.514 68.4429 579.514 74.1H600Z" fill="#EAEDFB" stroke="#333333" stroke-width="2.5"/>
<path d="M509.614 226.714H555.943" stroke="#333333" stroke-width="2.5" stroke-linecap="round" stroke-linejoin="round"/>
<path d="M509.614 233.914H555.942" stroke="#333333" stroke-width="2.5" stroke-linecap="round" stroke-linejoin="round"/>
<path d="M509.614 241.114H555.942" stroke="#333333" stroke-width="2.5" stroke-linecap="round" stroke-linejoin="round"/>
<path d="M509.614 248.357H555.942" stroke="#333333" stroke-width="2.5" stroke-linecap="round" stroke-linejoin="round"/>
<path d="M509.614 255.557H543.085" stroke="#333333" stroke-width="2.5" stroke-linecap="round" stroke-linejoin="round"/>
<path d="M476.742 202.5H473.485L478.713 190.757H481.971L476.742 202.5Z" fill="#4F42B5"/>
<path d="M483.856 202.5H480.642L488.87 184.029H492.084L483.856 202.5Z" fill="#4F42B5"/>
<path d="M491.014 202.5H487.8L499.886 175.371H503.1L491.014 202.5Z" fill="#4F42B5"/>
<path d="M498.17 202.5H494.956L500.57 189.9H503.785L498.17 202.5Z" fill="#4F42B5"/>
<path d="M505.328 202.5H502.113L512.485 179.186H515.699L505.328 202.5Z" fill="#4F42B5"/>
<path d="M512.486 202.5H509.229L515.4 188.657H518.614L512.486 202.5Z" fill="#4F42B5"/>
<path d="M469.201 164.271H512.315" stroke="#333333" stroke-width="2.5" stroke-linecap="round" stroke-linejoin="round"/>
<path d="M469.2 170.743H487.8" stroke="#333333" stroke-width="2.5" stroke-linecap="round" stroke-linejoin="round"/>
<path d="M512.315 76.3285H555.473" stroke="#333333" stroke-width="2.5" stroke-linecap="round" stroke-linejoin="round"/>
<path d="M512.314 82.8H530.914" stroke="#333333" stroke-width="2.5" stroke-linecap="round" stroke-linejoin="round"/>
<path d="M557.315 115.414C557.315 125.314 549.301 133.371 539.358 133.371C529.415 133.371 521.401 125.357 521.401 115.414C521.401 105.471 529.415 97.4572 539.358 97.4572V115.414H557.315Z" fill="#FFB400"/>
<path d="M560.058 112.8C560.058 107.829 558.044 103.371 554.787 100.114C551.53 96.8572 547.073 94.8429 542.101 94.8429V112.8H560.058Z" fill="#4F42B5"/>
<path d="M331.372 44.1C327.557 38.3143 321.6 43.9714 321.6 43.9714C327.514 38.0143 330.857 41.7857 332.057 43.6714C331.543 41.5714 331.072 36.3 339.643 36.3857C339.643 36.3857 331.114 36.5571 332.872 43.7571C332.7 42.0857 333 39.1714 337.329 38.4C343.457 37.2857 345.9 43.9714 347.229 44.5286C348.557 45.0857 351.986 39.2571 356.4 43.6285C360.814 48 360.729 46.9714 364.286 45.8143C364.5 45.7714 364.672 45.7285 364.886 45.6857C367.243 45.1285 371.529 45.1714 372.043 52.9286C372.043 52.9286 371.486 47.0143 367.2 46.4143C369.086 48.0428 369.729 52.3714 366.772 58.7143C362.529 67.8 352.157 71.7857 352.157 71.7857L320.572 54.3428C320.572 54.3428 319.8 50.5714 321.514 46.1143C323.272 41.5714 328.586 42.9857 331.372 44.1Z" fill="#333333"/>
<path d="M320.957 63.6857C318.086 61.9285 316.886 58.1571 318.515 54.9857C319.886 52.2428 323.1 50.7857 326.057 51.5571C327.6 51.9428 328.843 52.8428 329.7 53.9571C332.4 53.0142 335.4 53.0142 338.1 54.0428L348.729 58.0714C348.729 58.0714 348.686 59.7 348.515 62.1428C348.9 62.2285 349.243 62.3142 349.629 62.4857C353.015 63.9 354.643 67.7571 353.272 71.1857C352.072 74.1 349.029 75.7285 346.029 75.2142C345 78.0428 343.629 80.4857 341.7 81.7285C334.929 86.1428 330.129 79.2428 330.129 79.2428L324 93.3428C322.972 95.6571 320.315 96.8142 317.957 95.9142C313.072 94.1143 305.657 90.1285 304.972 82.4142L320.957 63.6857Z" fill="#FFB400"/>
<path d="M340.629 62.6142L340.586 69.3428L338.658 68.5714" stroke="#333333" stroke-width="2" stroke-linecap="round" stroke-linejoin="round"/>
<path d="M334.886 70.3714C335.443 71.7 336.343 72.7285 338.015 73.2" stroke="#333333" stroke-width="2" stroke-linecap="round" stroke-linejoin="round"/>
<path d="M325.929 57.6857C325.929 57.6857 325.8 55.8428 322.714 54.5571" stroke="#333333" stroke-width="2" stroke-linecap="round" stroke-linejoin="round"/>
<path d="M322.672 59.0571C322.672 59.0571 322.458 56.2714 325.458 56.6143" stroke="#333333" stroke-width="2" stroke-linecap="round" stroke-linejoin="round"/>
<path d="M347.658 68.2714C347.658 68.2714 348.601 66.6428 351.901 66.8571" stroke="#333333" stroke-width="2" stroke-linecap="round" stroke-linejoin="round"/>
<path d="M350.014 70.9286C350.014 70.9286 351.429 68.5286 348.557 67.5" stroke="#333333" stroke-width="2" stroke-linecap="round" stroke-linejoin="round"/>
<path d="M330.3 79.2857C330.3 79.2857 327.729 75.9428 326.957 72.2571C326.957 72.2571 324.857 80.3571 328.714 82.5428L330.3 79.2857Z" fill="#333333"/>
<circle cx="344.443" cy="64.9286" r="0.857143" fill="#333333"/>
<path d="M335.872 59.6571C335.872 59.6571 337.672 59.5285 339.301 60.3857" stroke="#333333" stroke-width="2" stroke-linecap="round" stroke-linejoin="round"/>
<path d="M343.758 61.7142C343.758 61.7142 345.429 62.4428 346.458 63.9857" stroke="#333333" stroke-width="2" stroke-linecap="round" stroke-linejoin="round"/>
<circle cx="336.686" cy="62.6571" r="0.857143" fill="#333333"/>
<circle cx="346.414" cy="66.8571" r="4.71429" stroke="#EAEDFB" stroke-width="2.5"/>
<circle cx="336.043" cy="62.6571" r="4.71429" stroke="#EAEDFB" stroke-width="2.5"/>
<path d="M340.542 63.9428L342.3 64.6285" stroke="#EAEDFB" stroke-width="2.5"/>
<path d="M310.028 76.9286L325.714 306.429L125.1 305.271C125.1 305.229 199.028 40.8429 310.028 76.9286Z" fill="white"/>
<path d="M285.257 124.843L308.657 208.843C308.657 208.843 313.629 234.557 345 239.614L427.929 260.571" stroke="#333333" stroke-width="2.5" stroke-linecap="round" stroke-linejoin="round"/>
<path d="M193.328 186.043L240.128 264.257C250.799 282.086 265.113 294.557 283.113 300.471" stroke="#333333" stroke-width="2.5" stroke-linecap="round" stroke-linejoin="round"/>
<path d="M301.028 92.2286L294.985 126.6L302.742 132.171L298.671 160.457" stroke="#333333" stroke-width="2.5" stroke-linecap="round" stroke-linejoin="round"/>
<path d="M188.014 195.943L206.786 208.586" stroke="#333333" stroke-width="2.5" stroke-linecap="round" stroke-linejoin="round"/>
<path d="M405.428 263.014L388.028 298.886" stroke="#333333" stroke-width="2.5" stroke-linecap="round" stroke-linejoin="round"/>
<path d="M168.342 306.129H108.814C106.499 306.129 104.571 304.243 104.571 301.886V300C104.571 297.686 106.457 295.757 108.814 295.757H168.342C170.657 295.757 172.585 297.643 172.585 300V301.886C172.585 304.243 170.657 306.129 168.342 306.129Z" fill="#FFB400"/>
<path d="M137.956 304.886H117.642V278.743C117.642 274.286 121.285 270.6 125.785 270.6H129.856C134.314 270.6 137.999 274.243 137.999 278.743V304.886H137.956Z" fill="#FFB400"/>
<path d="M166.714 254.314C166.714 271.843 152.528 286.029 134.999 286.029C117.471 286.029 103.285 271.843 103.285 254.314C103.285 236.786 117.471 222.6 134.999 222.6" stroke="#FFB400" stroke-width="9"/>
<circle cx="165.77" cy="261.557" r="7.37143" fill="#FFB400"/>
<path d="M149.999 245.443L146.271 246.214C142.799 246.943 139.371 244.757 138.642 241.371L132.299 212.4C131.571 209.014 133.799 205.671 137.228 204.943L140.956 204.171C144.428 203.443 147.856 205.629 148.585 209.014L154.928 237.986C155.699 241.371 153.471 244.714 149.999 245.443Z" fill="#FFB400"/>
<path d="M140.57 211.243C138.856 211.586 137.142 210.514 136.756 208.843L135.513 203.1C135.128 201.429 136.242 199.714 137.999 199.371C139.713 199.029 141.428 200.1 141.813 201.771L143.056 207.514C143.399 209.186 142.285 210.857 140.57 211.243Z" fill="#FFB400"/>
<path d="M139.413 222.814C139.413 226.157 136.713 228.857 133.37 228.857C130.028 228.857 127.328 226.157 127.328 222.814C127.328 219.471 130.028 216.771 133.37 216.771C136.713 216.771 139.413 219.471 139.413 222.814Z" fill="#FFB400"/>
<path d="M133.371 216.557C136.714 216.557 139.414 219.257 139.414 222.6C139.414 225.943 136.714 228.643 133.371 228.643" stroke="#333333" stroke-width="2.5" stroke-linecap="round" stroke-linejoin="round"/>
<path d="M148.2 260.229L181.285 251.786" stroke="#FFB400" stroke-width="9" stroke-linecap="round"/>
<path d="M140.313 238.243L151.584 235.886" stroke="#333333" stroke-width="2.5" stroke-linecap="round" stroke-linejoin="round"/>
<path d="M136.414 205.286L142.285 204.086" stroke="#333333" stroke-width="2.5" stroke-linecap="round" stroke-linejoin="round"/>
<path d="M119.014 284.614C119.014 284.614 125.614 289.457 136.371 288.129" stroke="#333333" stroke-width="2.5" stroke-linecap="round" stroke-linejoin="round"/>
<path d="M114.771 295.8H137.957" stroke="#333333" stroke-width="2.5" stroke-linecap="round" stroke-linejoin="round"/>
<path d="M158.442 259.671L172.585 255.986" stroke="#333333" stroke-width="2.5" stroke-linecap="round" stroke-linejoin="round"/>
<path d="M112.671 273.9C112.671 273.9 121.242 281.829 129.599 282.171" stroke="#333333" stroke-width="2.5" stroke-linecap="round" stroke-linejoin="round"/>
<path d="M144.943 243.686L150.943 242.571" stroke="#333333" stroke-width="2.5" stroke-linecap="round" stroke-linejoin="round"/>
<path d="M27.2998 305.829H595.457" stroke="#333333" stroke-width="2.5" stroke-linecap="round" stroke-linejoin="round"/>
</svg>
