<svg width="125" height="31" viewBox="0 0 125 31" fill="none" xmlns="http://www.w3.org/2000/svg">
<path fill-rule="evenodd" clip-rule="evenodd" d="M15.1345 13.7185C15.1523 13.4758 15.2589 13.2478 15.4454 13.0715C15.58 12.9444 15.7884 13.0152 15.8702 13.1806V13.1806C15.9504 13.3428 15.8491 13.5334 15.8009 13.7075C15.7953 13.7278 15.792 13.7479 15.7906 13.7672C15.7828 13.8737 15.8292 13.9975 15.9434 14.0892C16.0451 14.1708 16.1865 14.1895 16.2984 14.1515V14.1515C16.4373 14.1044 16.5667 13.9577 16.7135 13.9577H16.7766C16.9583 13.9577 17.1129 14.1085 17.048 14.2763C16.9506 14.5279 16.7414 14.7003 16.5086 14.7794C16.1987 14.8846 15.821 14.8382 15.5333 14.6074C15.2582 14.3865 15.1098 14.0546 15.1345 13.7185Z" fill="white"/>
<path d="M21.819 11.0172C19.1081 10.9254 17.4263 12.5848 16.9243 13.426C17.51 13.1583 19.1081 12.8295 20.815 13.6554C22.1955 14.3234 24.7056 14.963 26.2116 14.6877C27.2575 14.4966 29.7509 13.7701 31.3573 12.3936C32.9069 11.0659 33.7247 8.35063 33.9684 7.02762C33.9841 6.94229 33.9402 6.85778 33.8583 6.81115L27.6665 3.28758C27.5145 3.20111 27.3153 3.28246 27.2956 3.44184C27.1404 4.69533 26.7951 8.04874 26.2116 9.18187C25.621 10.3289 23.8271 11.0851 21.819 11.0172Z" fill="black"/>
<path fill-rule="evenodd" clip-rule="evenodd" d="M15.4242 4.47703C15.7834 4.25526 16.2399 4.25931 16.5951 4.48742L23.0873 8.62837L22.4937 9.53333L16.0014 5.39238L1.09038 14.598L16.0034 23.8048L30.6108 14.5493L29.9102 13.9369L30.5914 13.0944L31.292 13.7068C31.8749 14.1682 31.8274 15.0596 31.1988 15.4579L16.5914 24.7134C16.2369 24.938 15.7834 24.9406 15.4262 24.7201L0.513188 15.5133C-0.171063 15.0909 -0.171062 14.105 0.513189 13.6826L15.4242 4.47703Z" fill="white"/>
<path fill-rule="evenodd" clip-rule="evenodd" d="M26.8934 1.92613C26.8927 1.9433 26.892 1.96064 26.8913 1.97816C26.862 2.72483 26.8205 3.7799 26.7429 4.82196C26.6943 5.47376 26.6311 6.12885 26.5464 6.70838C26.4631 7.27832 26.3542 7.81114 26.2031 8.19914C25.883 9.02067 25.1926 9.68631 24.3398 10.149C23.4826 10.6142 22.4264 10.895 21.3056 10.9293C19.6838 10.979 18.5025 11.733 17.7561 12.4974C18.5817 12.3997 19.6017 12.4752 20.6788 12.9543C21.3698 13.2617 22.3559 13.5516 23.3567 13.7125C24.369 13.8753 25.3242 13.8942 25.9811 13.7161C27.0051 13.4384 29.4174 12.4773 30.874 10.9136C31.5405 10.1981 32.0437 9.10818 32.3996 7.96726C32.7238 6.92772 32.9108 5.89466 32.9953 5.16825L26.8934 1.92613ZM25.822 1.4359C25.8483 0.827921 26.5023 0.493762 27.0169 0.767145L33.6744 4.30446C33.9572 4.45469 34.1332 4.76019 34.1003 5.091C34.0214 5.8818 33.8184 7.07666 33.4415 8.2854C33.0678 9.48357 32.5053 10.7543 31.6758 11.6448C30.0203 13.4221 27.3818 14.4549 26.2693 14.7566C25.388 14.9956 24.2493 14.9491 23.1817 14.7774C22.1026 14.6039 21.0228 14.2902 20.2318 13.9384C18.9252 13.3572 17.6403 13.2052 16.9824 13.5307C16.3245 13.8562 15.9955 13.9384 15.9955 13.9384C15.9955 13.9384 16.0971 13.1792 16.5099 12.4974C16.9226 11.8156 18.1853 9.94549 21.2718 9.85096C22.2359 9.82143 23.1217 9.57955 23.8155 9.20303C24.5139 8.82407 24.9838 8.32912 25.1857 7.81106C25.2907 7.54139 25.3862 7.10827 25.4672 6.55397C25.5468 6.00925 25.6079 5.38178 25.6555 4.74264C25.7315 3.72169 25.772 2.69234 25.8014 1.94525C25.8088 1.75572 25.8156 1.58436 25.822 1.4359Z" fill="white"/>
<path d="M25.8825 11.8563C25.7249 11.5844 25.9059 11.1937 26.1959 11.0295C26.3735 10.9288 26.6206 10.7573 26.793 10.6205C27.0418 10.4232 27.4068 10.4575 27.5564 10.7154C27.6629 10.8992 27.6242 11.141 27.4519 11.2878C27.1744 11.5242 26.735 11.8606 26.3146 12.0228C26.1435 12.0888 25.9699 12.007 25.8825 11.8563Z" fill="white"/>
<path d="M29.7508 6.83592C29.4905 6.76615 29.3018 6.46457 29.3348 6.1962C29.3748 5.87079 29.4122 5.47165 29.4395 5.15552C29.4639 4.87259 29.7255 4.72089 29.9896 4.83893C30.1975 4.93181 30.3362 5.16287 30.316 5.38522C30.2881 5.69381 30.2458 6.13864 30.2007 6.5322C30.1742 6.76328 29.9745 6.89585 29.7508 6.83592Z" fill="white"/>
<path d="M28.6297 9.97434C28.3394 9.86316 28.1825 9.4317 28.3165 9.14418C28.4646 8.82639 28.6062 8.49107 28.7052 8.24979C28.7872 8.04993 28.9804 7.96628 29.1744 8.05006V8.05006C29.4394 8.16454 29.5904 8.53481 29.4789 8.80824C29.3482 9.12885 29.1752 9.53181 29.0157 9.83624C28.9383 9.98389 28.784 10.0335 28.6297 9.97434V9.97434Z" fill="white"/>
<path d="M22.804 12.1844C22.7383 11.9792 22.804 11.7537 22.9858 11.7161C23.3061 11.6498 23.6263 11.7534 23.9297 11.7509C24.1755 11.7489 24.4675 11.8834 24.5535 12.1521V12.1521C24.615 12.3444 24.5564 12.5584 24.3874 12.5993C24.0559 12.6795 23.7689 12.523 23.4003 12.5579C23.1593 12.5806 22.8891 12.4505 22.804 12.1844V12.1844Z" fill="white"/>
<path d="M19.4449 12.012C19.4664 11.9729 19.5001 11.9425 19.5388 11.9289C20.0878 11.7361 20.669 11.6923 21.0532 11.6887C21.2662 11.6867 21.3625 11.9317 21.2419 12.1446V12.1446C21.1569 12.2948 20.9926 12.3702 20.8502 12.3356C20.577 12.2692 20.1031 12.1886 19.5775 12.2534C19.457 12.2683 19.3789 12.1324 19.4449 12.012V12.012Z" fill="white"/>
<path fill-rule="evenodd" clip-rule="evenodd" d="M10.3559 26.7631C8.93285 25.8826 7.89757 24.5666 7.72027 22.8238C7.69011 22.5274 7.93738 22.2852 8.23847 22.2852C8.53957 22.2852 8.77948 22.5278 8.81788 22.8233C8.98658 24.1215 9.76869 25.1273 10.934 25.8484C12.2706 26.6754 14.0888 27.1065 15.9392 27.1065C17.7897 27.1065 19.6079 26.6754 20.9445 25.8484C22.1098 25.1273 22.8919 24.1215 23.0606 22.8233C23.099 22.5278 23.3389 22.2852 23.64 22.2852C23.9411 22.2852 24.1884 22.5274 24.1582 22.8238C23.9809 24.5666 22.9456 25.8826 21.5226 26.7631C19.9714 27.723 17.9392 28.1854 15.9392 28.1854C13.9393 28.1854 11.9071 27.723 10.3559 26.7631Z" fill="white"/>
<path d="M44.1053 20.3557C44.0787 19.183 44.1519 18.0103 44.325 16.8376C44.5114 15.6649 44.7977 14.5647 45.1839 13.537C44.9975 13.4579 44.7778 13.3855 44.5248 13.3196C44.2718 13.2405 44.072 13.1681 43.9255 13.1022C43.7657 13.0099 43.6059 12.8782 43.4461 12.7069C43.2863 12.5224 43.1732 12.3511 43.1066 12.193C43.04 12.0349 43.04 11.9097 43.1066 11.8175C43.1865 11.7121 43.3796 11.6989 43.6858 11.778C43.9788 11.9624 44.2784 12.0876 44.5847 12.1535C44.891 12.2062 45.1639 12.2918 45.4036 12.4104C45.7365 11.4881 46.0561 10.6909 46.3624 10.0189C46.682 9.33378 46.915 8.87921 47.0615 8.65521C47.1814 8.4971 47.3678 8.39169 47.6208 8.33898C47.8871 8.28628 48.2999 8.24675 48.8592 8.2204C48.9791 8.2204 49.0922 8.2204 49.1988 8.2204C49.3186 8.20722 49.3985 8.22698 49.4385 8.27969C49.4917 8.33239 49.4984 8.41804 49.4584 8.53662C49.4318 8.65521 49.3319 8.83968 49.1588 9.09002C48.8126 9.57754 48.5063 10.1112 48.24 10.6909C47.987 11.2575 47.7074 11.8966 47.4011 12.6081C47.734 12.6476 48.1401 12.6344 48.6195 12.5685C49.0989 12.4895 49.5916 12.3709 50.0976 12.2128C50.6036 12.0415 51.0897 11.8307 51.5558 11.5803C52.0218 11.33 52.4147 11.0401 52.7343 10.7107C53.0672 10.3681 53.2935 9.99918 53.4134 9.6039C53.5332 9.19543 53.4999 8.76062 53.3135 8.29945C53.1138 7.93052 52.8008 7.63405 52.3747 7.41006C51.9619 7.17289 51.5025 6.98842 50.9965 6.85666C50.5038 6.7249 50.0044 6.63925 49.4984 6.59972C49.0057 6.56019 48.5862 6.54702 48.24 6.56019C47.2147 6.58655 46.2026 6.71172 45.2039 6.93572C44.2052 7.14653 43.2664 7.42324 42.3875 7.76582C41.5086 8.1084 40.7163 8.4971 40.0105 8.93191C39.3181 9.36672 38.7588 9.80813 38.3327 10.2561C38.1063 10.5065 37.9865 10.7305 37.9731 10.9281C37.9731 11.1126 38.0331 11.2773 38.1529 11.4222C38.2728 11.5671 38.4326 11.6989 38.6323 11.8175C38.8454 11.9361 39.0451 12.0415 39.2315 12.1337C39.418 12.226 39.5778 12.3116 39.7109 12.3907C39.8441 12.4565 39.904 12.529 39.8907 12.6081C39.8774 12.6871 39.7376 12.7398 39.4712 12.7662C39.2182 12.7794 38.9186 12.7596 38.5724 12.7069C38.2262 12.6542 37.8733 12.5685 37.5137 12.45C37.1542 12.3182 36.8679 12.1403 36.6548 11.9163C36.3352 11.4288 36.222 10.9479 36.3153 10.4735C36.3952 9.99918 36.6415 9.5446 37.0543 9.10979C37.4538 8.6618 37.9931 8.24016 38.6722 7.84487C39.3514 7.44959 40.1037 7.10042 40.9294 6.79737C41.7683 6.48114 42.6605 6.21102 43.6059 5.98703C44.5647 5.76303 45.5301 5.59833 46.5022 5.49292C47.5409 5.38751 48.5463 5.35457 49.5184 5.3941C50.4905 5.43363 51.376 5.5588 52.175 5.76962C52.9873 5.98044 53.6797 6.28349 54.2523 6.67878C54.8382 7.06089 55.2577 7.54841 55.5107 8.14134C55.6705 8.61568 55.6838 9.14273 55.5506 9.72248C55.4308 10.2891 55.1711 10.849 54.7716 11.4024C54.3722 11.9427 53.8395 12.4368 53.1737 12.8848C52.5212 13.3328 51.7355 13.6688 50.8167 13.8927C50.0976 14.0772 49.4385 14.1563 48.8392 14.1299C48.24 14.0904 47.6607 14.0509 47.1015 14.0113C46.6088 15.3685 46.2958 16.6598 46.1627 17.8851C46.0295 19.1105 45.9962 20.303 46.0628 21.4625C46.0761 21.7524 45.9696 21.9105 45.7432 21.9368C45.5301 21.9763 45.2904 21.9236 45.0241 21.7787C44.7578 21.6469 44.5181 21.4493 44.305 21.1858C44.1053 20.9354 44.0387 20.6587 44.1053 20.3557Z" fill="white"/>
<path d="M58.3716 13.9125C58.4248 13.728 58.538 13.6358 58.7111 13.6358C58.8976 13.6226 59.084 13.6622 59.2704 13.7544C59.4702 13.8335 59.6433 13.952 59.7898 14.1102C59.9362 14.2683 60.0028 14.4132 59.9895 14.545L59.57 17.1341C59.4635 18.0433 59.4568 18.7218 59.5501 19.1698C59.6433 19.6046 59.7964 19.8682 60.0095 19.9604C60.2225 20.0394 60.4689 19.9736 60.7485 19.7627C61.0282 19.5388 61.3012 19.2291 61.5675 18.8338C61.8471 18.4254 62.0868 17.9576 62.2866 17.4306C62.4996 16.8903 62.6394 16.3435 62.706 15.7901C62.7193 15.6452 62.7793 15.5464 62.8858 15.4937C62.9923 15.441 63.1055 15.4278 63.2254 15.4541C63.3452 15.4805 63.4451 15.5464 63.525 15.6518C63.6049 15.744 63.6249 15.8692 63.5849 16.0273C63.5183 16.4753 63.3918 16.9957 63.2054 17.5887C63.0323 18.1684 62.7926 18.7218 62.4863 19.2489C62.1933 19.7627 61.8271 20.2041 61.3877 20.5731C60.9483 20.942 60.4423 21.1397 59.8697 21.166C59.3237 21.1924 58.8842 21.0738 58.5513 20.8103C58.2184 20.5336 57.9787 20.1712 57.8323 19.7232C57.779 19.5783 57.7324 19.4399 57.6924 19.3082C57.6525 19.1632 57.6192 19.0117 57.5926 18.8536C57.526 18.9985 57.4594 19.1501 57.3928 19.3082C57.3396 19.4531 57.2663 19.598 57.1731 19.743C56.7204 20.4677 56.181 20.9223 55.5552 21.1067C54.9293 21.2912 54.2369 21.1331 53.4778 20.6324C53.2115 20.4479 53.0384 20.158 52.9585 19.7627C52.8786 19.3675 52.8653 18.9261 52.9185 18.4385C52.9585 17.951 53.0384 17.4569 53.1582 16.9562C53.2781 16.4555 53.4046 16.0075 53.5378 15.6122C53.6576 15.2697 53.8041 14.9073 53.9772 14.5252C54.1503 14.1431 54.3434 13.7808 54.5565 13.4382C54.7828 13.0824 55.0292 12.7728 55.2955 12.5092C55.5751 12.2325 55.8681 12.0349 56.1744 11.9163C56.494 11.7846 56.8269 11.7516 57.1731 11.8175C57.5193 11.8834 57.8789 12.081 58.2517 12.4104C58.4248 12.5554 58.4981 12.6871 58.4714 12.8057C58.4448 12.9243 58.3782 13.0165 58.2717 13.0824C58.1652 13.1483 58.0387 13.1878 57.8922 13.201C57.759 13.2142 57.6658 13.1878 57.6125 13.1219C57.5193 13.0692 57.4394 13.0165 57.3728 12.9638C57.3063 12.9111 57.2264 12.8979 57.1332 12.9243C57.0533 12.9507 56.9467 13.0297 56.8136 13.1615C56.6937 13.2932 56.5273 13.5172 56.3142 13.8335C56.1145 14.1497 55.9214 14.5186 55.7349 14.9403C55.5485 15.3487 55.3821 15.7769 55.2356 16.2249C55.1024 16.6598 54.9892 17.1012 54.896 17.5491C54.8161 17.9971 54.7695 18.4056 54.7562 18.7745C54.7429 19.1303 54.7629 19.4399 54.8161 19.7035C54.8827 19.9538 55.0025 20.1185 55.1757 20.1976C55.3088 20.2107 55.4553 20.1646 55.6151 20.0592C55.7882 19.9406 55.9547 19.7825 56.1145 19.5849C56.2876 19.3872 56.454 19.1501 56.6138 18.8734C56.7869 18.5967 56.9467 18.287 57.0932 17.9444C57.3595 17.2988 57.5926 16.6268 57.7923 15.9285C57.9921 15.2301 58.1851 14.5581 58.3716 13.9125Z" fill="white"/>
<path d="M62.6366 12.0744C62.5567 12.0613 62.4701 11.9954 62.3769 11.8768C62.2837 11.7582 62.2038 11.633 62.1372 11.5013C62.084 11.3695 62.0507 11.2443 62.0373 11.1257C62.0373 11.0072 62.0773 10.9413 62.1572 10.9281C62.3836 10.9281 62.6033 10.9281 62.8164 10.9281C63.0427 10.9149 63.2691 10.9083 63.4955 10.9083C63.6553 10.2759 63.8018 9.76201 63.9349 9.36672C64.0814 8.95826 64.2146 8.63545 64.3344 8.39827C64.4143 8.30604 64.5541 8.24675 64.7539 8.2204C64.9536 8.19404 65.16 8.20063 65.3731 8.24016C65.5861 8.26651 65.7726 8.3258 65.9324 8.41804C66.0922 8.51027 66.1654 8.62227 66.1521 8.75403C66.0189 8.87262 65.8858 9.11638 65.7526 9.48531C65.6327 9.84107 65.4863 10.322 65.3132 10.9281H66.8712C67.0043 10.9149 67.1109 10.9479 67.1908 11.0269C67.2707 11.106 67.3106 11.1982 67.3106 11.3036C67.3239 11.3959 67.2973 11.4881 67.2307 11.5803C67.1641 11.6726 67.0576 11.7253 66.9111 11.7384L65.0335 11.9163C64.9004 12.417 64.7738 12.9309 64.654 13.4579C64.5342 13.985 64.4276 14.4923 64.3344 14.9798C64.2412 15.4673 64.1546 15.9153 64.0747 16.3238C64.0082 16.719 63.9616 17.0419 63.9349 17.2922C63.895 17.5821 63.875 17.8851 63.875 18.2014C63.8883 18.5176 63.9216 18.8141 63.9749 19.0908C64.0281 19.3675 64.108 19.6046 64.2146 19.8023C64.3211 19.9867 64.4476 20.0987 64.5941 20.1383C64.9004 20.2041 65.2066 20.0922 65.5129 19.8023C65.8192 19.5124 66.0988 19.1369 66.3518 18.6757C66.6048 18.2145 66.8179 17.7204 66.991 17.1934C67.1641 16.6663 67.284 16.1986 67.3506 15.7901C67.3639 15.6452 67.4238 15.5464 67.5303 15.4937C67.6369 15.441 67.75 15.4278 67.8699 15.4541C67.9897 15.4805 68.0896 15.5464 68.1695 15.6518C68.2494 15.744 68.2694 15.8692 68.2294 16.0273C68.1628 16.4753 68.0363 16.9957 67.8499 17.5887C67.6768 18.1684 67.4371 18.7218 67.1308 19.2489C66.8379 19.7627 66.4717 20.2041 66.0322 20.5731C65.5928 20.942 65.0868 21.1397 64.5142 21.166C63.9682 21.1924 63.5288 21.0738 63.1959 20.8103C62.863 20.5336 62.6233 20.1712 62.4768 19.7232C62.3569 19.3675 62.2904 18.8997 62.277 18.32C62.277 17.7402 62.317 17.1012 62.3969 16.4028C62.4768 15.7045 62.5833 14.9798 62.7165 14.2287C62.863 13.4777 63.0161 12.753 63.1759 12.0547C63.0827 12.0678 62.9895 12.0744 62.8963 12.0744C62.8164 12.0744 62.7298 12.0744 62.6366 12.0744Z" fill="white"/>
<path d="M68.8343 16.4226C68.7544 16.8574 68.6745 17.2659 68.5946 17.648C68.528 18.0301 68.4548 18.4122 68.3749 18.7943C68.3083 19.1632 68.235 19.5387 68.1551 19.9209C68.0886 20.2898 68.0087 20.6851 67.9155 21.1067C67.8888 21.1858 67.7889 21.2385 67.6158 21.2648C67.4427 21.3044 67.2563 21.3175 67.0566 21.3044C66.8568 21.3044 66.677 21.278 66.5172 21.2253C66.3441 21.1726 66.2576 21.1001 66.2576 21.0079C66.4706 20.0592 66.6904 19.0315 66.9167 17.9247C67.1431 16.8179 67.3695 15.6913 67.5959 14.545C67.8356 13.3986 68.0619 12.2589 68.275 11.1257C68.4881 9.99259 68.6811 8.91873 68.8543 7.90417C68.8809 7.73288 68.9275 7.52206 68.9941 7.27171C69.074 7.02136 69.1738 6.7776 69.2937 6.54043C69.4135 6.29008 69.5467 6.07926 69.6932 5.90797C69.853 5.7235 70.0261 5.62468 70.2125 5.61151C70.4788 5.59833 70.7185 5.64445 70.9316 5.74986C71.158 5.84209 71.3511 5.98044 71.5109 6.16491C71.684 6.3362 71.8171 6.54702 71.9103 6.79737C72.0169 7.04771 72.0835 7.31124 72.1101 7.58794C72.15 8.00958 72.0901 8.45757 71.9303 8.93191C71.7705 9.40625 71.5641 9.8806 71.3111 10.3549C71.0581 10.8293 70.7718 11.2839 70.4522 11.7187C70.1326 12.1535 69.833 12.529 69.5534 12.8452L69.2537 14.1892C69.4801 13.8071 69.7198 13.4579 69.9728 13.1417C70.2391 12.8123 70.5055 12.5949 70.7718 12.4895C71.0115 12.3841 71.3044 12.3511 71.6507 12.3907C71.9969 12.4302 72.3298 12.5158 72.6494 12.6476C73.0356 12.8057 73.2686 13.1088 73.3485 13.5568C73.4284 13.9916 73.4351 14.4989 73.3685 15.0786C73.3019 15.6452 73.1954 16.2315 73.0489 16.8376C72.9157 17.4437 72.8292 18.0037 72.7892 18.5176C72.7493 19.0183 72.7959 19.4268 72.929 19.743C73.0622 20.046 73.3685 20.1778 73.8479 20.1383C74.2207 20.0724 74.5669 19.8747 74.8865 19.5453C75.2061 19.2028 75.4858 18.8141 75.7255 18.3792C75.9785 17.9313 76.1849 17.4767 76.3447 17.0155C76.5045 16.5412 76.6043 16.1393 76.6443 15.8099C76.6576 15.6649 76.7109 15.5661 76.8041 15.5134C76.9106 15.4607 77.0171 15.4475 77.1237 15.4739C77.2435 15.4871 77.3434 15.5464 77.4233 15.6518C77.5032 15.744 77.5232 15.8692 77.4832 16.0273C77.3367 16.6466 77.1436 17.279 76.904 17.9247C76.6776 18.5703 76.3846 19.1566 76.0251 19.6837C75.6655 20.1976 75.2261 20.6126 74.7068 20.9288C74.2007 21.2319 73.5949 21.3571 72.8891 21.3044C72.3431 21.2912 71.917 21.199 71.6107 21.0277C71.3178 20.8564 71.1047 20.6258 70.9715 20.3359C70.8517 20.046 70.7918 19.7166 70.7918 19.3477C70.8051 18.9656 70.845 18.5637 70.9116 18.1421C70.9782 17.7204 71.0648 17.2988 71.1713 16.8772C71.2778 16.4423 71.3644 16.0207 71.431 15.6122C71.5508 14.7953 71.6041 14.2156 71.5907 13.873C71.5907 13.5304 71.5441 13.3459 71.4509 13.3196C71.2512 13.2537 71.0248 13.3064 70.7718 13.4777C70.5321 13.649 70.2924 13.8927 70.0527 14.209C69.813 14.512 69.58 14.8612 69.3536 15.2565C69.1406 15.6518 68.9674 16.0405 68.8343 16.4226ZM70.632 7.48912C70.6053 7.56817 70.5787 7.66041 70.5521 7.76582C70.5254 7.85805 70.4922 8.01616 70.4522 8.24016C70.4123 8.45098 70.3523 8.74085 70.2724 9.10979C70.2059 9.47872 70.1126 9.97283 69.9928 10.5921C70.1792 10.2232 70.3457 9.85424 70.4922 9.48531C70.652 9.1032 70.7851 8.74744 70.8916 8.41804C70.9449 8.23357 70.9649 8.06228 70.9516 7.90417C70.9516 7.74605 70.9316 7.62088 70.8916 7.52864C70.8517 7.43641 70.8051 7.38371 70.7518 7.37053C70.7119 7.35735 70.6719 7.39688 70.632 7.48912Z" fill="white"/>
<path d="M81.3366 12.2918C81.4031 12.1601 81.543 12.0613 81.756 11.9954C81.9824 11.9163 82.2088 11.8768 82.4352 11.8768C82.6748 11.8768 82.8879 11.9163 83.0743 11.9954C83.2741 12.0744 83.374 12.193 83.374 12.3511C83.081 13.3393 82.8746 14.2749 82.7547 15.1577C82.6349 16.0273 82.6482 16.9299 82.7947 17.8654C82.9012 18.5242 82.9878 19.0381 83.0544 19.407C83.1343 19.7627 83.2142 20.0065 83.2941 20.1383C83.374 20.27 83.4672 20.303 83.5737 20.2371C83.6935 20.1712 83.8467 20.0329 84.0331 19.822C84.2861 19.5453 84.5258 19.2423 84.7522 18.9129C84.9786 18.5835 85.185 18.208 85.3714 17.7863C85.5578 17.3647 85.7176 16.8969 85.8508 16.3831C85.9973 15.856 86.1038 15.2697 86.1704 14.624C85.8907 14.4527 85.7043 14.2287 85.6111 13.952C85.5179 13.6753 85.4912 13.3921 85.5312 13.1022C85.5711 12.7991 85.6644 12.5027 85.8108 12.2128C85.9706 11.9097 86.1637 11.6462 86.3901 11.4222C86.6298 11.1982 86.8828 11.0335 87.1491 10.9281C87.4288 10.8227 87.7151 10.8029 88.008 10.8688C88.4075 11.1587 88.6472 11.4683 88.7271 11.7977C88.8203 12.114 88.8203 12.4236 88.7271 12.7267C88.6339 13.0297 88.4808 13.2998 88.2677 13.537C88.0679 13.7742 87.8749 13.952 87.6884 14.0706C87.8349 14.1497 88.0014 14.209 88.1878 14.2485C88.3742 14.2749 88.5606 14.288 88.7471 14.288C88.9468 14.288 89.1399 14.2814 89.3263 14.2683C89.5128 14.2419 89.6792 14.2222 89.8257 14.209C90.0121 14.1958 90.1786 14.1892 90.3251 14.1892C90.4715 14.176 90.598 14.1958 90.7046 14.2485C90.8244 14.288 90.911 14.3605 90.9642 14.4659C91.0308 14.5713 91.0774 14.7228 91.1041 14.9205C90.9443 15.1181 90.7911 15.2565 90.6446 15.3355C90.4982 15.4014 90.2585 15.441 89.9256 15.4541C89.5128 15.4805 89.1066 15.4937 88.7071 15.4937C88.321 15.4805 87.9348 15.4014 87.5486 15.2565C87.4554 15.8494 87.3222 16.4555 87.1491 17.0748C86.9893 17.6809 86.7829 18.2541 86.5299 18.7943C86.2902 19.3213 86.0039 19.7957 85.671 20.2173C85.3514 20.6258 84.9919 20.9288 84.5924 21.1265C84.3927 21.2319 84.1663 21.3109 83.9133 21.3637C83.6736 21.4295 83.4405 21.4625 83.2142 21.4625C82.9878 21.4625 82.7747 21.4229 82.575 21.3439C82.3885 21.278 82.2487 21.166 82.1555 21.0079C81.9691 20.7575 81.8159 20.5006 81.6961 20.2371C81.5896 19.9736 81.483 19.6969 81.3765 19.407C81.1501 19.7891 80.9104 20.1317 80.6574 20.4347C80.4044 20.7378 80.1048 20.9684 79.7586 21.1265C79.5588 21.2319 79.3325 21.3109 79.0794 21.3637C78.8398 21.4295 78.6067 21.4625 78.3803 21.4625C78.154 21.4625 77.9409 21.4229 77.7412 21.3439C77.5547 21.278 77.4149 21.166 77.3217 21.0079C76.9089 20.3754 76.6093 19.6837 76.4228 18.9326C76.2364 18.1816 76.1299 17.424 76.1033 16.6598C76.0766 15.8824 76.1033 15.1181 76.1832 14.3671C76.2631 13.616 76.3696 12.9243 76.5027 12.2918C76.5693 12.1601 76.7091 12.0613 76.9222 11.9954C77.1486 11.9163 77.375 11.8768 77.6013 11.8768C77.841 11.8768 78.0541 11.9163 78.2405 11.9954C78.4403 12.0744 78.5401 12.193 78.5401 12.3511C78.2472 13.3393 78.0408 14.2749 77.9209 15.1577C77.8011 16.0273 77.8144 16.9299 77.9609 17.8654C78.0674 18.5242 78.154 19.0381 78.2205 19.407C78.3004 19.7627 78.3803 20.0065 78.4602 20.1383C78.5401 20.27 78.6334 20.303 78.7399 20.2371C78.8597 20.1712 79.0129 20.0329 79.1993 19.822C79.5455 19.4531 79.8651 19.0249 80.1581 18.5374C80.4643 18.0498 80.724 17.4503 80.9371 16.7388C80.8971 15.9482 80.9171 15.1708 80.997 14.4066C81.0902 13.6424 81.2034 12.9375 81.3366 12.2918Z" fill="white"/>
<path d="M95.0824 13.9125C95.1357 13.728 95.2489 13.6358 95.422 13.6358C95.6084 13.6226 95.7948 13.6622 95.9813 13.7544C96.181 13.8335 96.3541 13.952 96.5006 14.1102C96.6471 14.2683 96.7137 14.4132 96.7003 14.545L96.2809 17.1341C96.1743 18.0433 96.1677 18.7218 96.2609 19.1698C96.3541 19.6046 96.5073 19.8682 96.7203 19.9604C96.9334 20.0394 97.1797 19.9736 97.4594 19.7627C97.739 19.5388 98.012 19.2291 98.2783 18.8338C98.558 18.4254 98.7977 17.9576 98.9974 17.4306C99.2105 16.8903 99.3503 16.3435 99.4169 15.7901C99.4302 15.6452 99.4901 15.5464 99.5966 15.4937C99.7032 15.441 99.8163 15.4278 99.9362 15.4541C100.056 15.4805 100.156 15.5464 100.236 15.6518C100.316 15.744 100.336 15.8692 100.296 16.0273C100.229 16.4753 100.103 16.9957 99.9162 17.5887C99.7431 18.1684 99.5034 18.7218 99.1971 19.2489C98.9042 19.7627 98.538 20.2041 98.0985 20.5731C97.6591 20.942 97.1531 21.1397 96.5805 21.166C96.0345 21.1924 95.5951 21.0738 95.2622 20.8103C94.9293 20.5336 94.6896 20.1712 94.5431 19.7232C94.4898 19.5783 94.4432 19.4399 94.4033 19.3082C94.3633 19.1632 94.33 19.0117 94.3034 18.8536C94.2368 18.9985 94.1702 19.1501 94.1037 19.3082C94.0504 19.4531 93.9772 19.598 93.8839 19.743C93.4312 20.4677 92.8919 20.9223 92.266 21.1067C91.6401 21.2912 90.9477 21.1331 90.1887 20.6324C89.9223 20.4479 89.7492 20.158 89.6693 19.7627C89.5894 19.3675 89.5761 18.9261 89.6294 18.4385C89.6693 17.951 89.7492 17.4569 89.8691 16.9562C89.9889 16.4555 90.1154 16.0075 90.2486 15.6122C90.3684 15.2697 90.5149 14.9073 90.688 14.5252C90.8611 14.1431 91.0542 13.7808 91.2673 13.4382C91.4937 13.0824 91.74 12.7728 92.0063 12.5092C92.286 12.2325 92.5789 12.0349 92.8852 11.9163C93.2048 11.7846 93.5377 11.7516 93.8839 11.8175C94.2302 11.8834 94.5897 12.081 94.9626 12.4104C95.1357 12.5554 95.2089 12.6871 95.1823 12.8057C95.1556 12.9243 95.0891 13.0165 94.9825 13.0824C94.876 13.1483 94.7495 13.1878 94.603 13.201C94.4699 13.2142 94.3766 13.1878 94.3234 13.1219C94.2302 13.0692 94.1503 13.0165 94.0837 12.9638C94.0171 12.9111 93.9372 12.8979 93.844 12.9243C93.7641 12.9507 93.6576 13.0297 93.5244 13.1615C93.4046 13.2932 93.2381 13.5172 93.025 13.8335C92.8253 14.1497 92.6322 14.5186 92.4458 14.9403C92.2594 15.3487 92.0929 15.7769 91.9464 16.2249C91.8133 16.6598 91.7001 17.1012 91.6069 17.5491C91.527 17.9971 91.4803 18.4056 91.467 18.7745C91.4537 19.1303 91.4737 19.4399 91.527 19.7035C91.5935 19.9538 91.7134 20.1185 91.8865 20.1976C92.0197 20.2107 92.1661 20.1646 92.3259 20.0592C92.499 19.9406 92.6655 19.7825 92.8253 19.5849C92.9984 19.3872 93.1649 19.1501 93.3247 18.8734C93.4978 18.5967 93.6576 18.287 93.804 17.9444C94.0704 17.2988 94.3034 16.6268 94.5032 15.9285C94.7029 15.2301 94.896 14.5581 95.0824 13.9125Z" fill="white"/>
<path d="M102.723 20.7114C102.244 21.1462 101.718 21.3834 101.145 21.4229C100.905 21.4098 100.666 21.3571 100.426 21.2648C100.186 21.1858 99.9666 21.087 99.7669 20.9684C99.5671 20.8498 99.394 20.718 99.2475 20.5731C99.1144 20.415 99.0278 20.2634 98.9879 20.1185C98.8281 19.5915 98.7615 18.9656 98.7881 18.2409C98.8281 17.503 98.908 16.7652 99.0278 16.0273C99.161 15.2894 99.3141 14.5977 99.4872 13.952C99.6737 13.2932 99.8401 12.7859 99.9866 12.4302C100.053 12.338 100.186 12.2787 100.386 12.2523C100.599 12.226 100.812 12.2325 101.025 12.2721C101.238 12.2984 101.425 12.3577 101.585 12.45C101.744 12.5422 101.818 12.6542 101.804 12.7859C101.684 12.9441 101.558 13.2142 101.425 13.5963C101.305 13.9652 101.192 14.4 101.085 14.9007C100.979 15.3882 100.892 15.9087 100.826 16.4621C100.772 17.0155 100.746 17.536 100.746 18.0235C100.759 18.511 100.812 18.9458 100.905 19.3279C100.999 19.71 101.152 19.9736 101.365 20.1185C101.538 20.2371 101.711 20.2503 101.884 20.158C102.057 20.0658 102.23 19.9143 102.404 19.7035C102.577 19.4795 102.736 19.2159 102.883 18.9129C103.029 18.5967 103.163 18.287 103.282 17.984C103.522 16.7059 103.695 15.6649 103.802 14.8612C103.922 14.0443 103.988 13.3855 104.001 12.8848C104.041 12.7003 104.155 12.5883 104.341 12.5488C104.541 12.5092 104.747 12.5158 104.96 12.5685C105.187 12.6212 105.386 12.7069 105.559 12.8255C105.746 12.9309 105.839 13.0429 105.839 13.1615C105.826 13.8203 105.766 14.6109 105.659 15.5332C105.566 16.4423 105.433 17.3976 105.26 18.399C105.1 19.4004 104.907 20.3952 104.681 21.3834C104.454 22.3848 104.215 23.3006 103.962 24.1307C104.188 24.1307 104.401 24.1372 104.601 24.1504C104.814 24.1636 105.047 24.1834 105.3 24.2097C105.446 24.2361 105.553 24.3019 105.619 24.4074C105.686 24.5128 105.706 24.6248 105.679 24.7433C105.653 24.8619 105.573 24.9673 105.44 25.0596C105.32 25.1518 105.14 25.1848 104.9 25.1584C104.674 25.132 104.454 25.1189 104.241 25.1189C104.041 25.1189 103.848 25.1255 103.662 25.1386C103.356 26.0478 103.009 26.8911 102.623 27.6685C102.237 28.459 101.791 29.1244 101.285 29.6647C101.045 29.9282 100.746 30.1456 100.386 30.3169C100.04 30.4882 99.6803 30.6068 99.3075 30.6726C98.9479 30.7385 98.5884 30.7385 98.2289 30.6726C97.8693 30.6199 97.5697 30.4948 97.33 30.2971C97.077 30.0995 96.8972 29.8294 96.7907 29.4868C96.6708 29.1442 96.6708 28.716 96.7907 28.2021C96.8839 27.7936 97.0637 27.372 97.33 26.9372C97.5963 26.5155 97.9492 26.1203 98.3886 25.7513C98.8148 25.3824 99.3274 25.0596 99.9267 24.7829C100.526 24.5194 101.212 24.3415 101.984 24.2492C102.051 23.9594 102.111 23.6827 102.164 23.4191C102.217 23.1688 102.27 22.9053 102.324 22.6286C102.39 22.365 102.45 22.0752 102.503 21.7589C102.57 21.4559 102.643 21.1067 102.723 20.7114ZM100.905 28.0045C101.039 27.7805 101.178 27.4379 101.325 26.9767C101.471 26.5287 101.618 25.9951 101.764 25.3758C100.632 25.6262 99.7203 26.0346 99.0278 26.6012C98.3487 27.1809 97.9758 27.8529 97.9093 28.6172C97.8693 29.0915 97.9559 29.4077 98.1689 29.5658C98.3687 29.7371 98.6283 29.7767 98.9479 29.6844C99.2675 29.6054 99.6071 29.4143 99.9666 29.1113C100.326 28.8214 100.639 28.4524 100.905 28.0045Z" fill="white"/>
<path d="M110.965 12.3907C110.765 12.6674 110.605 12.9243 110.486 13.1615C110.366 13.3855 110.239 13.6424 110.106 13.9323C109.946 14.2749 109.913 14.5911 110.006 14.881C110.099 15.1577 110.259 15.441 110.486 15.7308C110.725 16.0075 110.998 16.2974 111.304 16.6005C111.624 16.9035 111.917 17.2527 112.183 17.648C112.463 17.5689 112.736 17.4899 113.002 17.4108C113.269 17.3317 113.502 17.2197 113.701 17.0748C113.914 16.9167 114.088 16.719 114.221 16.4819C114.367 16.2315 114.46 15.9087 114.5 15.5134C114.487 15.329 114.527 15.2104 114.62 15.1577C114.713 15.105 114.813 15.0984 114.92 15.1379C115.04 15.1774 115.146 15.2631 115.239 15.3948C115.333 15.5134 115.379 15.6584 115.379 15.8297C115.366 16.2776 115.279 16.6532 115.12 16.9562C114.973 17.2593 114.773 17.5162 114.52 17.727C114.281 17.9247 114.001 18.096 113.681 18.2409C113.375 18.3727 113.056 18.4978 112.723 18.6164C112.936 18.8799 113.062 19.1369 113.102 19.3872C113.155 19.6244 113.149 19.8484 113.082 20.0592C113.016 20.27 112.896 20.4611 112.723 20.6324C112.563 20.8037 112.376 20.942 112.163 21.0474C111.697 21.2714 111.151 21.39 110.525 21.4032C109.913 21.4295 109.34 21.3834 108.808 21.2648C108.448 21.199 108.195 21.0804 108.049 20.9091C107.902 20.7378 107.836 20.5401 107.849 20.3161C107.849 19.9472 107.915 19.6442 108.049 19.407C108.195 19.1566 108.388 18.9524 108.628 18.7943C108.868 18.623 109.141 18.4912 109.447 18.399C109.753 18.2936 110.073 18.2014 110.406 18.1223C110.059 17.7666 109.733 17.4569 109.427 17.1934C109.121 16.9167 108.861 16.6598 108.648 16.4226C108.435 16.1854 108.275 15.9482 108.168 15.7111C108.075 15.4607 108.062 15.1774 108.129 14.8612C108.222 14.3737 108.408 13.8071 108.688 13.1615C108.981 12.5027 109.294 11.8636 109.627 11.2443C109.68 11.1389 109.793 11.1192 109.966 11.185C110.153 11.2377 110.332 11.3366 110.505 11.4815C110.679 11.6264 110.818 11.7846 110.925 11.9558C111.031 12.1271 111.045 12.2721 110.965 12.3907ZM109.007 20.1976C109.047 20.2766 109.161 20.3491 109.347 20.415C109.533 20.4677 109.746 20.5072 109.986 20.5336C110.226 20.5467 110.466 20.5401 110.705 20.5138C110.945 20.4874 111.138 20.4281 111.284 20.3359C111.431 20.2437 111.504 20.1185 111.504 19.9604C111.518 19.7891 111.411 19.5717 111.185 19.3082C111.091 19.3345 110.918 19.3872 110.665 19.4663C110.426 19.5453 110.179 19.631 109.926 19.7232C109.673 19.8154 109.447 19.9077 109.247 19.9999C109.061 20.079 108.981 20.1449 109.007 20.1976Z" fill="white"/>
</svg>
