<svg width="140" height="135" viewBox="0 0 140 118" fill="none" xmlns="http://www.w3.org/2000/svg">
<rect y="13" width="105" height="105" rx="52.5" fill="#F8CD49"/>
<path d="M129.506 0.125H79.4227C73.6363 0.125 68.9283 4.83296 68.9283 10.6194V42.7471L59.6289 38.1227C59.3149 37.9661 58.9957 37.8183 58.6739 37.6782C61.4041 34.8281 63.0871 30.9664 63.0871 26.7176C63.0871 17.9723 55.9725 10.8569 47.2271 10.8569C38.4809 10.8569 31.3664 17.9723 31.3664 26.7176C31.3664 31.47 33.4703 35.7387 36.7927 38.648C30.674 42.0905 26 48.8058 26 57.125V67.8569C26 72.477 28.9998 76.4091 33.1546 77.8068V96.476C33.1546 98.3199 34.6497 99.8159 36.4944 99.8159H57.9581C59.8029 99.8159 61.298 98.3199 61.298 96.476V58.9506L71.9907 64.2961C76.0829 66.3418 81.6336 65.1224 84.1437 60.4648H96.1185L83.4384 95.334C82.8078 97.0674 83.7028 98.9844 85.4362 99.6141C87.4175 100.335 89.1796 99.0922 89.7162 97.6171L103.226 60.4648H105.567L119.216 97.6276C119.734 99.0374 121.483 100.352 123.503 99.6106C125.233 98.9748 126.122 97.0561 125.486 95.3245L112.683 60.4648H129.506C135.18 60.4648 140 55.8873 140 49.9704V10.6194C140 4.70163 135.18 0.125 129.506 0.125ZM38.0461 26.7176C38.0461 21.6548 42.1643 17.5365 47.2263 17.5365C52.2891 17.5365 56.4074 21.6548 56.4074 26.7176C56.4074 31.7796 52.2891 35.8979 47.2263 35.8979C42.1643 35.8979 38.0461 31.7796 38.0461 26.7176ZM78.4355 56.8936C78.4268 56.918 78.4182 56.9432 78.4103 56.9684C78.1824 57.6042 77.6676 58.14 77.037 58.3992C76.3699 58.6705 75.6193 58.6418 74.9783 58.3218C68.6274 55.1446 59.4506 50.5601 59.4506 50.5601C57.2345 49.4521 54.6183 51.0663 54.6183 53.5477V93.1362H39.8343V75.0114C39.8343 73.1676 38.3383 71.6716 36.4944 71.6716C34.3905 71.6716 32.6797 69.9608 32.6797 67.8569V57.125C32.6797 48.9641 39.3246 42.5784 47.2263 42.5784H50.1773C52.4161 42.5784 54.6522 43.1037 56.65 44.1013C56.65 44.1013 73.2162 52.3396 77.4353 54.4409C78.339 54.8897 78.7687 55.9439 78.4355 56.8936ZM133.32 49.9704C133.32 50.9906 132.925 51.9482 132.204 52.6684C131.496 53.3781 130.512 53.7852 129.506 53.7852H84.87C84.8639 53.7669 84.8595 53.7486 84.8534 53.7312L93.1422 37.1546C93.9667 35.5047 93.2987 33.4991 91.6488 32.6737C89.9998 31.8492 87.9932 32.5171 87.1678 34.1671L80.0985 48.3049C78.7808 47.6482 77.2492 46.8854 75.608 46.0696V10.6194C75.608 8.51636 77.3188 6.80469 79.4227 6.80469H129.506C130.512 6.80469 131.496 7.21173 132.205 7.92319C132.925 8.6416 133.32 9.5992 133.32 10.6194V49.9704Z" fill="black"/>
<path d="M109.351 9.43408H73.5771C71.7324 9.43408 70.2373 10.9292 70.2373 12.7739C70.2373 14.6187 71.7324 16.1138 73.5771 16.1138H109.351C111.195 16.1138 112.691 14.6187 112.691 12.7739C112.691 10.9292 111.196 9.43408 109.351 9.43408Z" fill="black"/>
<path d="M109.351 21.9551H91.4639C89.62 21.9551 88.124 23.4502 88.124 25.2949C88.124 27.1397 89.62 28.6348 91.4639 28.6348H109.351C111.195 28.6348 112.691 27.1397 112.691 25.2949C112.691 23.4502 111.196 21.9551 109.351 21.9551Z" fill="black"/>
<path d="M109.351 39.4761H91.4639C89.62 39.4761 88.124 40.9712 88.124 42.8159C88.124 44.6598 89.62 46.1558 91.4639 46.1558H109.351C111.195 46.1558 112.691 44.6598 112.691 42.8159C112.691 40.9712 111.196 39.4761 109.351 39.4761Z" fill="black"/>
</svg>
