<svg width="115" height="135" viewBox="0 0 115 100" fill="none" xmlns="http://www.w3.org/2000/svg">
<rect width="99" height="99" rx="49.5" transform="matrix(-1 0 0 1 115 0)" fill="#F8CD49"/>
<path d="M50.3497 0.000933414C32.8696 -0.123481 19.0512 12.2052 15.8098 27.4923C13.4253 38.7388 16.3637 50.0298 23.8719 58.4703C27.5419 62.5961 29.6466 68.113 29.6466 73.622V79.4814C29.6466 83.3814 32.2009 86.6945 35.7237 87.8404C36.9139 94.7304 42.9296 99.9892 50.1544 99.9892C57.3792 99.9892 63.395 94.7304 64.585 87.8404C68.1079 86.6947 70.6622 83.3816 70.6622 79.4814V73.622C70.6622 68.1806 72.8294 62.5875 76.6079 58.2765C82.22 51.874 85.3106 43.6593 85.3106 35.1455C85.3106 15.9171 69.8555 0.139801 50.3497 0.000933414ZM50.1544 94.1298C46.3348 94.1298 43.0764 91.6613 41.8673 88.2509H58.4413C57.2323 91.6613 53.9739 94.1298 50.1544 94.1298ZM64.8028 79.4814C64.8028 81.0968 63.4886 82.4111 61.8731 82.4111H38.4356C36.8202 82.4111 35.5059 81.0968 35.5059 79.4814V76.5517H64.8028V79.4814ZM47.2247 46.8642H44.295C39.4487 46.8642 35.5059 42.9214 35.5059 38.0752V35.1455H38.4356C43.2819 35.1455 47.2247 39.0882 47.2247 43.9345V46.8642ZM72.2014 54.4144C68.1696 59.0142 65.6122 64.8177 64.9651 70.6923H53.0841V52.7236H56.0137C64.0909 52.7236 70.6622 46.1523 70.6622 38.0752V32.2158C70.6622 30.5978 69.3505 29.2861 67.7325 29.2861H61.8731C57.0864 29.2861 52.8292 31.5943 50.1544 35.1556C47.4796 31.5943 43.2223 29.2861 38.4356 29.2861H32.5762C30.9583 29.2861 29.6466 30.5978 29.6466 32.2158V38.0752C29.6466 46.1523 36.2178 52.7236 44.295 52.7236H47.2247V70.6923H35.3507C34.7225 64.7785 32.2122 59.0304 28.2499 54.5759C21.9927 47.5418 19.5475 38.113 21.5419 28.7078C24.201 16.1658 35.6331 5.73277 50.3497 5.86187C66.6511 6.00503 79.4512 19.1771 79.4512 35.1455C79.4512 42.2377 76.8766 49.0808 72.2014 54.4144ZM53.0841 46.8642V43.9345C53.0841 39.0882 57.0268 35.1455 61.8731 35.1455H64.8028V38.0752C64.8028 42.9214 60.86 46.8642 56.0137 46.8642H53.0841Z" fill="black"/>
<path d="M8.78906 22.1508H2.92969C1.31172 22.1508 0 23.4625 0 25.0804C0 26.6986 1.31172 28.0101 2.92969 28.0101H8.78906C10.407 28.0101 11.7188 26.6984 11.7188 25.0804C11.7188 23.4625 10.407 22.1508 8.78906 22.1508Z" fill="black"/>
<path d="M10.0028 7.50237L5.85967 3.3592C4.71572 2.21506 2.86084 2.21506 1.7165 3.3592C0.572363 4.50335 0.572363 6.35823 1.7165 7.50237L5.85967 11.6455C7.00361 12.7895 8.85849 12.7899 10.0028 11.6455C11.147 10.5014 11.147 8.64651 10.0028 7.50237Z" fill="black"/>
<path d="M10.0027 43.5156C8.85855 42.3713 7.00366 42.3713 5.85952 43.5154L1.71636 47.6588C0.572412 48.8029 0.572412 50.6578 1.71636 51.802C2.8603 52.9461 4.71538 52.9461 5.85952 51.802L10.0027 47.6588C11.1466 46.5146 11.1466 44.6598 10.0027 43.5156Z" fill="black"/>
<path d="M97.0703 22.1508H91.2109C89.593 22.1508 88.2812 23.4625 88.2812 25.0804C88.2812 26.6986 89.593 28.0101 91.2109 28.0101H97.0703C98.6883 28.0101 100 26.6984 100 25.0804C100 23.4625 98.6883 22.1508 97.0703 22.1508Z" fill="black"/>
<path d="M98.2841 3.3592C97.1401 2.21506 95.2851 2.21506 94.1409 3.3592L89.9978 7.50237C88.8536 8.64651 88.8536 10.5014 89.9978 11.6455C91.1419 12.7897 92.9968 12.7899 94.1409 11.6455L98.2841 7.50237C99.4282 6.35823 99.4282 4.50334 98.2841 3.3592Z" fill="black"/>
<path d="M98.2841 47.6586L94.1409 43.5155C92.9968 42.3713 91.1421 42.3713 89.9978 43.5155C88.8536 44.6596 88.8536 46.5145 89.9978 47.6586L94.1409 51.8018C95.2849 52.9457 97.1398 52.9461 98.2841 51.8018C99.4282 50.6576 99.4282 48.8028 98.2841 47.6586Z" fill="black"/>
</svg>
