<svg width="111" height="135" viewBox="0 0 111 135" fill="none" xmlns="http://www.w3.org/2000/svg">
<rect width="80" height="80" rx="40" transform="matrix(-1 0 0 1 96 0)" fill="#F8CD49"/>
<path fill-rule="evenodd" clip-rule="evenodd" d="M35.5093 122.717L12.7887 96.9855L8.46905 100.8L31.1896 126.531L35.5093 122.717ZM42.479 124.567L32.1626 133.676C31.3346 134.407 30.0707 134.329 29.3396 133.501L1.32389 101.773C0.592783 100.945 0.671321 99.6808 1.49931 98.9497L11.8157 89.8404C12.6437 89.1093 13.9076 89.1878 14.6387 90.0158L42.6544 121.744C43.3855 122.572 43.307 123.836 42.479 124.567Z" fill="black"/>
<path fill-rule="evenodd" clip-rule="evenodd" d="M97.2024 72.0851C101.728 72.5132 105.866 74.4681 108.584 76.2672C110.778 77.719 110.859 80.6862 109.177 82.3683L79.653 111.892C78.5278 113.018 77.0016 113.65 75.4103 113.65H49.3198L40.3071 121.263C38.6561 122.657 36.1959 122.488 34.7511 120.881L16.0253 100.049C14.5083 98.3612 14.6974 95.7511 16.4418 94.2998L34.8779 78.9615C35.9556 78.0649 37.3133 77.574 38.7153 77.574H67.1761C72.1793 77.574 75.6534 80.417 77.0383 83.9789L83.3709 77.3929C87.4581 72.8251 92.571 71.6469 97.2024 72.0851ZM55.1245 96.9257C53.4677 96.9257 52.1245 95.5826 52.1245 93.9257C52.1245 92.2689 53.4677 90.9257 55.1245 90.9257H67.1761C69.175 90.9257 70.269 90.312 70.8433 89.7309C71.4371 89.1299 71.743 88.2973 71.7045 87.375C71.6292 85.5717 70.2351 83.574 67.1761 83.574H39.8001C39.0991 83.574 38.4202 83.8194 37.8814 84.2678L21.8767 97.5832L37.9169 115.428L45.448 109.066C46.5308 108.151 47.9024 107.65 49.3198 107.65H74.1677C74.9633 107.65 75.7264 107.334 76.289 106.771L103.061 79.9988C101.171 79.0567 98.9186 78.2742 96.6373 78.0584C93.4965 77.7613 90.3942 78.5227 87.8146 81.4248L87.7756 81.4687L74.0934 95.6982C73.3392 96.4825 72.2981 96.9257 71.2101 96.9257H55.1245Z" fill="black"/>
<path fill-rule="evenodd" clip-rule="evenodd" d="M27.103 38C27.103 34.6863 29.7893 32 33.103 32H75.0449C78.3587 32 81.0449 34.6863 81.0449 38V75.0144L65.734 65.3158H33.103C29.7893 65.3158 27.103 62.6295 27.103 59.3157V38ZM75.0449 38H33.103L33.103 59.3157L65.734 59.3157C66.8709 59.3157 67.9844 59.6387 68.9448 60.2471L75.0449 64.1112V38Z" fill="black"/>
<path d="M46.827 48.9366C46.827 51.0918 45.0799 52.8389 42.9247 52.8389C40.7696 52.8389 39.0225 51.0918 39.0225 48.9366C39.0225 46.7815 40.7696 45.0344 42.9247 45.0344C45.0799 45.0344 46.827 46.7815 46.827 48.9366Z" fill="black"/>
<path fill-rule="evenodd" clip-rule="evenodd" d="M42.9247 47.8389C42.3184 47.8389 41.827 48.3303 41.827 48.9366C41.827 49.5429 42.3184 50.0344 42.9247 50.0344C43.531 50.0344 44.0225 49.5429 44.0225 48.9366C44.0225 48.3303 43.531 47.8389 42.9247 47.8389ZM42.9247 52.8389C45.0799 52.8389 46.827 51.0918 46.827 48.9366C46.827 46.7815 45.0799 45.0344 42.9247 45.0344C40.7696 45.0344 39.0225 46.7815 39.0225 48.9366C39.0225 51.0918 40.7696 52.8389 42.9247 52.8389Z" fill="black"/>
<path d="M57.9764 48.9366C57.9764 51.0918 56.2293 52.8389 54.0741 52.8389C51.919 52.8389 50.1719 51.0918 50.1719 48.9366C50.1719 46.7815 51.919 45.0344 54.0741 45.0344C56.2293 45.0344 57.9764 46.7815 57.9764 48.9366Z" fill="black"/>
<path fill-rule="evenodd" clip-rule="evenodd" d="M54.0741 47.8389C53.4679 47.8389 52.9764 48.3303 52.9764 48.9366C52.9764 49.5429 53.4679 50.0344 54.0741 50.0344C54.6804 50.0344 55.1719 49.5429 55.1719 48.9366C55.1719 48.3303 54.6804 47.8389 54.0741 47.8389ZM54.0741 52.8389C56.2293 52.8389 57.9764 51.0918 57.9764 48.9366C57.9764 46.7815 56.2293 45.0344 54.0741 45.0344C51.919 45.0344 50.1719 46.7815 50.1719 48.9366C50.1719 51.0918 51.919 52.8389 54.0741 52.8389Z" fill="black"/>
<path d="M69.1253 48.9366C69.1253 51.0918 67.3782 52.8389 65.2231 52.8389C63.0679 52.8389 61.3208 51.0918 61.3208 48.9366C61.3208 46.7815 63.0679 45.0344 65.2231 45.0344C67.3782 45.0344 69.1253 46.7815 69.1253 48.9366Z" fill="black"/>
<path fill-rule="evenodd" clip-rule="evenodd" d="M65.2231 47.8389C64.6168 47.8389 64.1253 48.3303 64.1253 48.9366C64.1253 49.5429 64.6168 50.0344 65.2231 50.0344C65.8293 50.0344 66.3208 49.5429 66.3208 48.9366C66.3208 48.3303 65.8293 47.8389 65.2231 47.8389ZM65.2231 52.8389C67.3782 52.8389 69.1253 51.0918 69.1253 48.9366C69.1253 46.7815 67.3782 45.0344 65.2231 45.0344C63.0679 45.0344 61.3208 46.7815 61.3208 48.9366C61.3208 51.0918 63.0679 52.8389 65.2231 52.8389Z" fill="black"/>
</svg>
