<svg width="149" height="216" viewBox="0 0 149 216" fill="none" xmlns="http://www.w3.org/2000/svg">
<path opacity="0.2" d="M0 168.3L82.5 94.2C86.7 90.4 90.9 86.1 95.1 81.3C99.3 76.5 101.4 70.9 101.4 64.5C101.4 57.3 98.8 51.7 93.6 47.7C88.4 43.5 82.3 41.4 75.3 41.4C66.9 41.4 60.3 44 55.5 49.2C50.9 54.4 48.3 60.8 47.7 68.4L2.7 65.1C3.3 54.1 5.6 44.6 9.6 36.6C13.6 28.4 18.9 21.6 25.5 16.2C32.1 10.8 39.8 6.8 48.6 4.2C57.6 1.4 67.3 0 77.7 0C87.3 0 96.3 1.4 104.7 4.2C113.1 6.8 120.4 10.8 126.6 16.2C132.8 21.4 137.6 28 141 36C144.6 44 146.4 53.3 146.4 63.9C146.4 70.7 145.7 76.9 144.3 82.5C142.9 87.9 140.9 92.9 138.3 97.5C135.9 101.9 133 106 129.6 109.8C126.2 113.6 122.5 117.3 118.5 120.9L54 176.4H148.2V216H0V168.3Z" fill="#4F42B5"/>
</svg>
