<svg width="153" height="220" viewBox="0 0 153 220" fill="none" xmlns="http://www.w3.org/2000/svg">
<path opacity="0.2" d="M55.2 87.3H69.9C74.1 87.3 78.2 87 82.2 86.4C86.2 85.8 89.8 84.7 93 83.1C96.4 81.3 99.1 78.9 101.1 75.9C103.1 72.7 104.1 68.6 104.1 63.6C104.1 57.2 101.5 51.9 96.3 47.7C91.3 43.5 85.1 41.4 77.7 41.4C70.7 41.4 64.9 43.3 60.3 47.1C55.7 50.9 52.7 55.6 51.3 61.2L1.8 51C4.2 41.8 7.8 34 12.6 27.6C17.4 21 23.1 15.7 29.7 11.7C36.3 7.69999 43.6 4.79999 51.6 2.99999C59.8 0.999994 68.4 0 77.4 0C86.8 0 95.8 1.2 104.4 3.60001C113.2 5.8 120.9 9.4 127.5 14.4C134.1 19.2 139.3 25.3 143.1 32.7C147.1 40.1 149.1 48.9 149.1 59.1C149.1 70.9 146 81 139.8 89.4C133.6 97.8 124.6 103.2 112.8 105.6V106.5C119.2 107.3 124.8 109.2 129.6 112.2C134.6 115.2 138.8 118.9 142.2 123.3C145.6 127.7 148.2 132.7 150 138.3C151.8 143.9 152.7 149.8 152.7 156C152.7 166.6 150.6 175.9 146.4 183.9C142.4 191.9 136.9 198.6 129.9 204C123.1 209.2 115 213.1 105.6 215.7C96.4 218.3 86.6 219.6 76.2 219.6C57.2 219.6 40.8 215.2 27 206.4C13.4 197.6 4.4 183.7 0 164.7L47.4 153.6C49 161.2 52.2 167.2 57 171.6C62 176 69.3 178.2 78.9 178.2C88.7 178.2 95.9 175.7 100.5 170.7C105.3 165.5 107.7 158.9 107.7 150.9C107.7 144.9 106.4 140.3 103.8 137.1C101.4 133.7 98.2 131.2 94.2 129.6C90.2 128 85.7 127.1 80.7 126.9C75.7 126.5 70.7 126.3 65.7 126.3H55.2V87.3Z" fill="#4F42B5"/>
</svg>
