<svg width="450" height="414" viewBox="0 0 450 414" fill="none" xmlns="http://www.w3.org/2000/svg">
<path d="M3 24.7085L6.25603 366.953H167.49" stroke="#333333" stroke-width="5" stroke-linecap="round" stroke-linejoin="round"/>
<path d="M3 25.551V25.551C3 13.1299 13.1299 3 25.551 3H292.063C304.484 3 314.614 13.1299 314.614 25.551V25.551C314.614 37.9722 304.484 48.102 292.063 48.102H25.551" stroke="#333333" stroke-width="5" stroke-linecap="round" stroke-linejoin="round"/>
<path d="M446.543 411.452H187.267L25.5508 48.103H284.827L446.543 411.452Z" fill="white" stroke="#333333" stroke-width="5" stroke-linecap="round" stroke-linejoin="round"/>
<ellipse cx="231.152" cy="96.5971" rx="7.59773" ry="11.8187" transform="rotate(-51.2758 231.152 96.5971)" fill="#333333"/>
<ellipse cx="269.619" cy="206.791" rx="7.59773" ry="11.8187" transform="rotate(-51.2758 269.619 206.791)" fill="#333333"/>
<ellipse cx="314.53" cy="367.116" rx="7.59773" ry="11.8187" transform="rotate(-51.2758 314.53 367.116)" fill="#333333"/>
<path d="M3 25.551C3 13.1299 13.1299 3 25.551 3C37.9722 3 48.102 13.1299 48.102 25.551C48.102 37.9722 37.9722 48.102 25.551 48.102" stroke="#333333" stroke-width="5" stroke-linecap="round" stroke-linejoin="round"/>
<path d="M290.254 206.804H340.18" stroke="#333333" stroke-width="2.5" stroke-linecap="round" stroke-linejoin="round" stroke-dasharray="12"/>
<path d="M236.109 369.847H285.915" stroke="#333333" stroke-width="2.5" stroke-linecap="round" stroke-linejoin="round" stroke-dasharray="12"/>
<path d="M228.87 98.2686L172.915 151.089C163.267 160.133 178.221 181.358 195.104 182.684L245.03 186.543C260.948 187.749 275.661 206.923 268.304 216.933L223.564 277.953C215.967 288.324 232.247 308.343 248.286 308.343H300.141C314.371 308.343 329.807 324.623 326.189 336.079L317.265 364.419" stroke="#333333" stroke-width="2.5" stroke-linecap="round" stroke-linejoin="round"/>
<path d="M101.279 97.0034H207.04" stroke="#333333" stroke-width="2.5" stroke-linecap="round" stroke-linejoin="round" stroke-dasharray="12"/>
<path d="M98 88H77.0604L64 59H84.9396L98 88Z" fill="white" stroke="#F8CD49" stroke-width="2.5" stroke-linecap="round" stroke-linejoin="round"/>
<path d="M123 88H102.06L89 59H109.94L123 88Z" fill="white" stroke="#F8CD49" stroke-width="2.5" stroke-linecap="round" stroke-linejoin="round"/>
<path d="M148 88H127.06L114 59H134.94L148 88Z" fill="white" stroke="#F8CD49" stroke-width="2.5" stroke-linecap="round" stroke-linejoin="round"/>
<path d="M173 88H152.06L139 59H159.94L173 88Z" fill="white" stroke="#F8CD49" stroke-width="2.5" stroke-linecap="round" stroke-linejoin="round"/>
<path d="M198 88H177.06L164 59H184.94L198 88Z" fill="white" stroke="#4F42B5" stroke-width="2.5" stroke-linecap="round" stroke-linejoin="round"/>
<path d="M295 197H274.06L261 168H281.94L295 197Z" fill="white" stroke="#F3A22F" stroke-width="2.5" stroke-linecap="round" stroke-linejoin="round"/>
<path d="M320 197H299.06L286 168H306.94L320 197Z" fill="white" stroke="#CCCCCC" stroke-width="2.5" stroke-linecap="round" stroke-linejoin="round"/>
<path d="M345 197H324.06L311 168H331.94L345 197Z" fill="white" stroke="#4F42B5" stroke-width="2.5" stroke-linecap="round" stroke-linejoin="round"/>
<path d="M210 361H189.06L176 332H196.94L210 361Z" fill="white" stroke="#CCCCCC" stroke-width="2.5" stroke-linecap="round" stroke-linejoin="round"/>
<path d="M235 361H214.06L201 332H221.94L235 361Z" fill="white" stroke="#CCCCCC" stroke-width="2.5" stroke-linecap="round" stroke-linejoin="round"/>
<path d="M260 361H239.06L226 332H246.94L260 361Z" fill="white" stroke="#4F42B5" stroke-width="2.5" stroke-linecap="round" stroke-linejoin="round"/>
<path d="M285 361H264.06L251 332H271.94L285 361Z" fill="white" stroke="#4F42B5" stroke-width="2.5" stroke-linecap="round" stroke-linejoin="round"/>
<path d="M210 260H189.06L176 231H196.94L210 260Z" fill="white" stroke="#F3A22F" stroke-width="2.5" stroke-linecap="round" stroke-linejoin="round"/>
<path d="M235 260H214.06L201 231H221.94L235 260Z" fill="white" stroke="#CCCCCC" stroke-width="2.5" stroke-linecap="round" stroke-linejoin="round"/>
<path d="M260 260H239.06L226 231H246.94L260 260Z" fill="white" stroke="#4F42B5" stroke-width="2.5" stroke-linecap="round" stroke-linejoin="round"/>
<path d="M160 260H139.06L126 231H146.94L160 260Z" fill="white" stroke="#F3A22F" stroke-width="2.5" stroke-linecap="round" stroke-linejoin="round"/>
<path d="M185 260H164.06L151 231H171.94L185 260Z" fill="white" stroke="#F3A22F" stroke-width="2.5" stroke-linecap="round" stroke-linejoin="round"/>
<path d="M285 260H264.06L251 231H271.94L285 260Z" fill="white" stroke="#4F42B5" stroke-width="2.5" stroke-linecap="round" stroke-linejoin="round"/>
</svg>
