<svg width="90" height="58" viewBox="0 0 90 58" fill="none" xmlns="http://www.w3.org/2000/svg">
<path d="M69.6792 0.100464C58.1884 0.100464 49.1153 9.41706 49.1153 20.9079C49.1153 32.3988 58.5527 41.7154 70.0436 41.7154C70.1585 41.7154 70.3319 41.6998 70.4469 41.6978C65.9035 45.3157 60.1971 47.4958 53.9509 47.4958C51.0772 47.4958 48.7646 49.826 48.7646 52.6977C48.7646 55.5695 50.6135 57.8996 53.4872 57.8996C73.8836 57.8976 89.9996 41.3043 89.9996 20.9079C89.9996 20.904 89.9996 20.9001 89.9996 20.8943C89.9996 9.40926 81.1662 0.100464 69.6792 0.100464Z" fill="#F8CD49"/>
<path d="M20.9433 0.100464C9.45248 0.100464 0.363837 9.41706 0.363837 20.9079C0.363837 32.3988 9.79343 41.7154 21.2862 41.7154C21.4012 41.7154 21.5707 41.6998 21.6856 41.6978C17.1423 45.3157 11.4339 47.4958 5.18773 47.4958C2.31405 47.4958 -0.000488281 49.826 -0.000488281 52.6977C-0.000488281 55.5695 1.87764 57.8996 4.75132 57.8996C25.1477 57.8976 41.2929 41.3043 41.2929 20.9079C41.2929 20.904 41.2929 20.9001 41.2929 20.8943C41.2929 9.40926 32.4303 0.100464 20.9433 0.100464Z" fill="#F8CD49"/>
</svg>
