<svg width="140" height="90" viewBox="0 0 140 90" preserveAspectRatio="xMinYMin meet" fill="none" xmlns="http://www.w3.org/2000/svg">
<path d="M31.6097 89.9548C49.4844 89.9548 63.598 75.4624 63.598 57.5877C63.598 39.713 48.9177 25.2206 31.043 25.2206C30.8642 25.2206 30.5945 25.2448 30.4157 25.2478C37.4831 19.6199 46.3598 16.2287 56.076 16.2287C60.5462 16.2287 64.1436 12.604 64.1436 8.13688C64.1436 3.66972 61.2675 0.0450974 56.7973 0.0450974C25.0696 0.0481262 0.00025177 25.86 0.00025177 57.5877C0.00025177 57.5938 0.00025177 57.5998 0.00025177 57.6089C0.00025177 75.4745 13.7411 89.9548 31.6097 89.9548Z" fill="#F8CD49"/>
<path d="M107.421 89.9548C125.295 89.9548 139.433 75.4624 139.433 57.5877C139.433 39.713 124.765 25.2206 106.887 25.2206C106.709 25.2206 106.445 25.2448 106.266 25.2478C113.333 19.6199 122.213 16.2287 131.929 16.2287C136.4 16.2287 140 12.604 140 8.13688C140 3.66972 137.078 0.0450974 132.608 0.0450974C100.881 0.0481262 75.7658 25.86 75.7658 57.5877C75.7658 57.5938 75.7658 57.5998 75.7658 57.6089C75.7658 75.4745 89.5521 89.9548 107.421 89.9548Z" fill="#F8CD49"/>
</svg>
